<svg width="81" height="67" viewBox="0 0 81 67" fill="none" xmlns="http://www.w3.org/2000/svg">
<path d="M11.343 51.7618V27.9394L19.4236 19.3218V51.1931L11.343 51.7618Z" fill="#E8E8E8"/>
<path d="M48.9415 17.4629V23.9261H42.9243C40.0003 23.9261 37.7383 24.5531 36.1311 25.8035C34.5274 27.0538 33.722 28.8437 33.722 31.1694V40.2828C33.722 42.6122 34.5238 44.3875 36.1311 45.6196C37.7347 46.8481 40.0003 47.4605 42.9243 47.4605H68.6299L73.768 54.1826H42.2365C39.3125 54.1826 36.749 53.8508 34.5422 53.1837C32.3354 52.5166 30.5147 51.5761 29.084 50.3695C27.6496 49.1629 26.5719 47.7522 25.8584 46.1373C25.1412 44.5224 24.7844 42.7653 24.7844 40.8661V30.6518C24.7844 28.8838 25.1302 27.2033 25.8179 25.6103C26.5057 24.0136 27.565 22.6138 28.9994 21.4072C30.4338 20.2006 32.2508 19.2418 34.4576 18.531C36.6644 17.8201 39.2573 17.4629 42.2365 17.4629H48.9415Z" fill="#E8E8E8"/>
<path d="M67.3168 32.635H77.2842V38.7118H68.0046C66.1104 38.7118 64.6208 38.9706 63.5358 39.4883C62.4471 40.0059 61.9028 40.7824 61.9028 41.8176C61.9028 42.4629 62.175 43.0024 62.7193 43.4325C63.2636 43.8663 63.9661 44.2527 64.8268 44.5954C65.7426 44.9417 66.7725 45.2844 67.92 45.6307C69.0712 45.977 70.2408 46.3634 71.4472 46.7936C72.6499 47.2237 73.8269 47.7304 74.9707 48.3137C76.1146 48.8969 77.1481 49.5968 78.0676 50.4134C78.9246 51.2336 79.6565 52.2069 80.2155 53.3552C81.9111 56.8402 79.171 61.991 76.2396 63.8684C73.1722 65.8296 68.8321 66.8102 63.2122 66.8102H53.1381V60.409H62.0094C65.2167 60.409 67.6258 59.9897 69.2294 59.1477C70.8366 58.3092 71.3626 56.246 71.0169 55.4221C70.5645 54.3431 69.7001 54.1171 68.7806 53.6432C67.92 53.1255 66.9012 52.6845 65.7279 52.3163C64.5509 51.9517 63.3666 51.5726 62.1639 51.1826C60.9575 50.7962 59.7696 50.366 58.5926 49.8921C57.4156 49.4182 56.4005 48.835 55.5399 48.146C54.624 47.4133 53.8921 46.542 53.3478 45.525C52.8034 44.5152 52.5312 43.2503 52.5312 41.7447C52.5312 38.9014 53.8333 36.6704 56.441 35.0555C59.0487 33.437 62.6752 32.6313 67.3168 32.6313V32.635Z" fill="#E8E8E8"/>
<path d="M24.241 13.6652C11.3496 22.5817 2.18775 33.7547 0.896777 42.1318C0.418637 45.234 1.01079 47.8258 2.65118 49.8308C8.87436 57.435 28.1029 53.4652 46.4341 40.7903C64.7616 28.1154 74.2471 12.2289 68.0239 4.62469C61.8008 -2.97953 42.5685 0.990265 24.241 13.6615V13.6652ZM4.8543 48.307C3.66631 46.8561 3.25437 44.8986 3.62585 42.4854C4.81752 34.739 13.5601 24.2185 25.8961 15.6883C42.4177 4.26379 60.701 -0.106987 65.8208 6.14844C66.7514 7.28944 67.1964 8.71478 67.1964 10.3588C67.1964 17.7297 58.2883 29.4204 44.7753 38.7634C28.2537 50.188 9.9704 54.5588 4.8543 48.3033V48.307Z" fill="#E8E8E8"/>
</svg>
