<svg width="20" height="20" viewBox="0 0 20 20" fill="none" xmlns="http://www.w3.org/2000/svg">
<path d="M15 3.27406V0.725941C15 0.325015 15.2239 0 15.5 0C15.7761 0 16 0.325015 16 0.725941V3.27406C16 3.67495 15.7761 4 15.5 4C15.2239 4 15 3.67495 15 3.27406Z" fill="#BBC1D9"/>
<path d="M4 3.27406V0.725941C4 0.325015 4.44772 0 5 0C5.55228 0 6 0.325015 6 0.725941V3.27406C5.99995 3.67495 5.55225 4 5 4C4.44775 4 4.00005 3.67495 4 3.27406Z" fill="#BBC1D9"/>
<path d="M18.4026 5.17831C18.4026 3.79582 17.3278 2.67134 16.0064 2.67132H3.9936C2.67221 2.67132 1.59744 3.79581 1.59744 5.17831V7.32867H18.4026V5.17831ZM20 8.16434C20 8.62585 19.6424 8.99998 19.2013 9H0.798721C0.357599 9 0 8.62586 0 8.16434V5.17831C0 2.87276 1.78997 1 3.9936 1H16.0064C18.21 1.00002 20 2.87277 20 5.17831V8.16434Z" fill="#BBC1D9"/>
<path d="M18.4026 5.00786C18.4026 3.67978 17.3297 2.60316 16.0064 2.60314H3.9936C2.67024 2.60314 1.59744 3.67977 1.59744 5.00786V15.9921C1.59749 17.3202 2.67027 18.3969 3.9936 18.3969H16.0064C17.3297 18.3968 18.4025 17.3202 18.4026 15.9921V5.00786ZM20 15.9921C19.9999 18.2056 18.212 20 16.0064 20H3.9936C1.78803 20 5.2692e-05 18.2056 0 15.9921V5.00786C0 2.79438 1.788 1 3.9936 1H16.0064C18.212 1.00002 20 2.79439 20 5.00786V15.9921Z" fill="#BBC1D9"/>
</svg>
