<svg width="20" height="20" viewBox="0 0 20 20" fill="none" xmlns="http://www.w3.org/2000/svg">
<path d="M9.33588 15.9408C9.48187 16.1329 9.71048 16.2584 9.97045 16.2584C10.2304 16.2584 10.459 16.1329 10.605 15.9408L17.335 9.82482C17.6622 9.52776 17.6865 9.02135 17.3888 8.6942C17.0917 8.36704 16.5852 8.34335 16.2579 8.64041L10.7709 13.6271V0.800275C10.7709 0.358523 10.4123 0 9.97045 0C9.52862 0 9.17003 0.358523 9.17003 0.800275V13.6271L3.68297 8.63913C3.35576 8.34207 2.84989 8.36576 2.55214 8.69291C2.25438 9.02007 2.27871 9.52647 2.60592 9.82354L9.33588 15.9408Z" fill="#333333"/>
<path d="M19.1359 18.4004H0.800423C0.35859 18.4004 0 18.7589 0 19.2007C0 19.6424 0.35859 20.0009 0.800423 20.0009H19.1352C19.5771 20.0009 19.9357 19.6424 19.9357 19.2007C19.9363 18.7589 19.5777 18.4004 19.1359 18.4004Z" fill="#333333"/>
</svg>
