<svg width="17" height="15" viewBox="0 0 17 15" fill="none" xmlns="http://www.w3.org/2000/svg">
<g clip-path="url(#clip0_2001_5776)">
<path d="M13.7332 10.5552H8.12143C6.99513 10.5552 6.07959 9.63056 6.07959 8.49711C6.07959 7.36366 6.99513 6.439 8.12143 6.439H12.8901C13.2952 6.439 13.6212 6.76711 13.6212 7.17475C13.6212 7.5824 13.2952 7.9105 12.8901 7.9105H8.12143C7.80198 7.9105 7.54181 8.17232 7.54181 8.4938C7.54181 8.81527 7.80198 9.07709 8.12143 9.07709H13.7332C14.7278 9.07709 15.5379 8.26512 15.5379 7.26423C15.5379 6.26335 14.7278 5.44806 13.7332 5.44806H11.5563C11.1513 5.44806 10.8252 5.11996 10.8252 4.71231C10.8252 4.30467 11.1513 3.97656 11.5563 3.97656H13.7332C15.5346 3.97656 17.0002 5.45137 17.0002 7.26755C17.0002 9.08372 15.5346 10.5552 13.7332 10.5552Z" fill="#9396A8"/>
<path d="M11.3454 15H0.731112C0.326036 15 0 14.6719 0 14.2643V4.29518C0 4.09965 0.0757458 3.91405 0.214064 3.77486L3.75107 0.215422C3.88938 0.0762262 4.07381 0 4.26811 0H11.3421C11.7472 0 12.0732 0.328104 12.0732 0.735749V6.38312C12.0732 6.79076 11.7472 7.11887 11.3421 7.11887C10.937 7.11887 10.611 6.79076 10.611 6.38312V1.4715H4.5711L1.46222 4.60009V13.5252H10.611V12.5442C10.611 12.1365 10.937 11.8084 11.3421 11.8084C11.7472 11.8084 12.0732 12.1365 12.0732 12.5442V14.2609C12.0732 14.6686 11.7472 14.9967 11.3421 14.9967L11.3454 15Z" fill="#9396A8"/>
</g>
<defs>
<clipPath id="clip0_2001_5776">
<rect width="17" height="15" fill="white"/>
</clipPath>
</defs>
</svg>
