<svg width="35" height="28" viewBox="0 0 35 28" fill="none" xmlns="http://www.w3.org/2000/svg">
<path d="M0 9.66325C0 6.90409 1.51275 4.46844 3.83087 2.75172C6.14813 1.03566 9.30897 1.14199e-05 12.7627 0C15.2157 0 17.5158 0.521379 19.4706 1.43462C19.9361 1.65213 20.1314 2.19412 19.9068 2.64483C19.6821 3.09544 19.1226 3.28445 18.6571 3.06711C16.9654 2.27679 14.9446 1.8123 12.7627 1.8123C9.68357 1.81231 6.93116 2.73769 4.96829 4.1913C3.00625 5.64431 1.87193 7.58719 1.87193 9.66325C1.87195 12.3491 3.7798 14.8304 6.89981 16.2764C7.36599 16.4925 7.56282 17.0334 7.33964 17.4848C7.11644 17.9362 6.55769 18.1271 6.09144 17.911C2.53245 16.2616 2.08388e-05 13.2479 0 9.66325Z" fill="#494949"/>
<path d="M33.1552 14.5494C33.1552 12.2395 31.9341 10.0835 29.8336 8.47554C27.7322 6.86704 24.789 5.84558 21.5 5.84558C18.2108 5.8456 15.2677 6.86642 13.1664 8.47446C11.0661 10.0818 9.84477 12.2375 9.84477 14.5494C9.84478 16.8593 11.066 19.015 13.1664 20.6229C15.2678 22.2314 18.211 23.2532 21.5 23.2532C22.2718 23.2532 23.0238 23.1941 23.7562 23.0859L23.8542 23.0766C24.0833 23.0674 24.3089 23.1441 24.4859 23.2936L26.9439 25.3691L27.555 22.3816L27.5669 22.3304C27.6338 22.0773 27.8056 21.8638 28.0403 21.7443C31.2153 20.1284 33.1552 17.4528 33.1552 14.5494ZM35 14.5494C35 18.2 32.6603 21.3154 29.2751 23.1771L28.4399 27.2623C28.3746 27.5813 28.146 27.8422 27.8385 27.949C27.531 28.0557 27.1898 27.9925 26.941 27.7824L23.6074 24.9676C22.9219 25.0522 22.2194 25.0988 21.5 25.0988C17.8417 25.0988 14.4961 23.9647 12.0455 22.0889C9.5941 20.2124 8.00001 17.5547 8 14.5494C8 11.5423 9.59389 8.88464 12.0455 7.00845C14.4962 5.133 17.8419 4.00001 21.5 4C25.1584 4 28.5042 5.13399 30.9548 7.00989C33.4062 8.88642 35 11.544 35 14.5494Z" fill="#494949"/>
<path d="M17 15C17 16.1036 16.5518 17 16 17C15.4482 17 15 16.1036 15 15C15 13.8964 15.4482 13 16 13C16.5518 13 17 13.8964 17 15Z" fill="#494949"/>
<path d="M23 15C23 16.1036 22.3277 17 21.5 17C20.6723 17 20 16.1036 20 15C20 13.8964 20.6723 13 21.5 13C22.3319 13 23 13.8964 23 15Z" fill="#494949"/>
<path d="M28 15C28 16.1036 27.3277 17 26.5 17C25.6723 17 25 16.1036 25 15C25 13.8964 25.6723 13 26.5 13C27.3277 13 28 13.8964 28 15Z" fill="#494949"/>
</svg>
