<svg width="11" height="11" viewBox="0 0 11 11" fill="none" xmlns="http://www.w3.org/2000/svg">
<path d="M10.4667 6.43164C10.1721 6.43164 9.93349 6.66997 9.93349 6.9643V9.46104H1.06651V6.9643C1.06651 6.66997 0.827909 6.43164 0.533254 6.43164C0.238598 6.43164 0 6.66997 0 6.9643V9.99369C0 10.288 0.238598 10.5263 0.533254 10.5263H10.4667C10.7614 10.5263 11 10.288 11 9.99369V6.9643C11 6.66997 10.7614 6.43164 10.4667 6.43164Z" fill="#4157F0"/>
<path d="M5.10824 8.38641C5.20885 8.49553 5.35115 8.5587 5.50063 8.5587C5.65011 8.5587 5.79241 8.49696 5.89303 8.38641L8.39832 5.6657C8.59811 5.4489 8.58373 5.11151 8.3667 4.91338C8.14966 4.71381 7.81332 4.72817 7.61353 4.94496L6.03532 6.66066V1.22211C6.03532 0.927786 5.79672 0.689453 5.50207 0.689453C5.20741 0.689453 4.96882 0.927786 4.96882 1.22211V6.66066L3.39061 4.94496C3.19082 4.72817 2.85448 4.71381 2.63744 4.91338C2.4204 5.11294 2.40603 5.4489 2.60582 5.6657L5.11111 8.38641H5.10824Z" fill="#4157F0"/>
</svg>
