<svg width="15" height="15" viewBox="0 0 15 15" fill="none" xmlns="http://www.w3.org/2000/svg">
<path d="M0 12.7037V2.29634C0 1.02811 1.02811 0 2.29634 0H7.5C7.82038 0 8.08009 0.259716 8.08009 0.580092C8.08009 0.900467 7.82038 1.16018 7.5 1.16018H2.29634C1.66887 1.16018 1.16018 1.66887 1.16018 2.29634V12.7037C1.16018 13.3311 1.66887 13.8398 2.29634 13.8398H12.7037C13.3311 13.8398 13.8398 13.3311 13.8398 12.7037V7.5C13.8398 7.17962 14.0995 6.91991 14.4199 6.91991C14.7403 6.91991 15 7.17962 15 7.5V12.7037C15 13.9719 13.9719 15 12.7037 15H2.29634C1.02811 15 0 13.9719 0 12.7037Z" fill="white"/>
<path d="M13.7035 4.38324V1.17385H10.4942C10.1738 1.17385 9.91406 0.914139 9.91406 0.593763C9.91406 0.273388 10.1738 0.0136719 10.4942 0.0136719H14.8637V4.38324C14.8637 4.70361 14.604 4.96333 14.2836 4.96333C13.9633 4.96333 13.7035 4.70361 13.7035 4.38324Z" fill="white"/>
<path d="M13.8731 0.183575C14.0997 -0.0429625 14.467 -0.0429625 14.6935 0.183575C14.9201 0.410115 14.9201 0.777415 14.6935 1.00395L9.26372 6.43374C9.03718 6.66028 8.66988 6.66028 8.44334 6.43374C8.2168 6.20721 8.2168 5.83991 8.44334 5.61337L13.8731 0.183575Z" fill="white"/>
</svg>
