<svg width="16" height="16" viewBox="0 0 16 16" fill="none" xmlns="http://www.w3.org/2000/svg">
<path d="M6.99641 14.0003C3.13978 14.0003 0 10.862 0 7.00014C0 3.13824 3.13978 0 6.99641 0C10.853 0 14 3.13824 14 7.00014C14 10.862 10.8602 14.0003 6.99641 14.0003ZM6.99641 2.14948C4.32258 2.14948 2.15054 4.32762 2.15054 7.00014C2.15054 9.67265 4.32258 11.8508 6.99641 11.8508C9.67025 11.8508 11.8495 9.67265 11.8495 7.00014C11.8495 4.32762 9.67025 2.14948 6.99641 2.14948Z" fill="white"/>
<path d="M14.3748 16.0001L10 11.7479C11.1608 10.7491 11.6252 10 11.6252 10L16 14.2522L14.3748 16.0001Z" fill="white"/>
</svg>
