<svg width="14" height="15" viewBox="0 0 14 15" fill="none" xmlns="http://www.w3.org/2000/svg">
<path d="M13.1571 5.40402H12.7273V0.576923C12.7273 0.257586 12.4841 0 12.1825 0H1.81414C1.51262 0 1.26939 0.257586 1.26939 0.576923V2.18596H2.35887V1.15385H11.6378V5.40226H5.79557L3.81319 3.30275C3.65493 3.13514 3.4417 3.04164 3.21847 3.04164H0.841264C0.376485 3.04164 0 3.44037 0 3.9326V14.109C0 14.6013 0.376485 15 0.841264 15H13.1587C13.6235 15 14 14.6013 14 14.109V6.29322C14 5.80099 13.6235 5.40226 13.1587 5.40226L13.1571 5.40402ZM11.801 8.14926H2.19395C1.91742 8.14926 1.69419 7.91284 1.69419 7.61997C1.69419 7.3271 1.91742 7.09068 2.19395 7.09068H11.801C12.0776 7.09068 12.3008 7.3271 12.3008 7.61997C12.3008 7.91284 12.0776 8.14926 11.801 8.14926Z" fill="#212121"/>
</svg>
