<svg width="16" height="16" viewBox="0 0 16 16" fill="none" xmlns="http://www.w3.org/2000/svg">
<g clip-path="url(#clip0_2001_5440)">
<path d="M9.49988 10.9334C8.31197 10.9334 7.19765 10.4709 6.36366 9.63688C6.05879 9.33202 6.05879 8.84144 6.36366 8.53658C6.66852 8.23171 7.1591 8.23171 7.46396 8.53658C8.54675 9.61936 10.453 9.61936 11.5358 8.53658L13.6033 6.46912C14.1429 5.92597 14.4407 5.20412 14.4407 4.4332C14.4407 3.66229 14.1429 2.94043 13.6033 2.39728C12.4819 1.27595 10.6563 1.27595 9.53492 2.39728L8.56077 3.37144C8.2559 3.6763 7.76532 3.6763 7.46046 3.37144C7.1556 3.06658 7.1556 2.576 7.46046 2.27113L8.43462 1.29698C10.1657 -0.434078 12.9795 -0.430573 14.7071 1.29698C15.5411 2.13097 16.0036 3.24529 16.0036 4.4332C16.0036 5.62111 15.5446 6.73544 14.7071 7.56943L12.6396 9.63688C11.8056 10.4709 10.6913 10.9334 9.50339 10.9334H9.49988Z" fill="#9EA2A9"/>
<path d="M4.43286 15.9992C3.24495 15.9992 2.13063 15.5401 1.29664 14.7062C-0.430911 12.9786 -0.430911 10.1648 1.29664 8.4337L3.3641 6.36274C5.09165 4.63169 7.90549 4.63169 9.63654 6.36274C9.94141 6.66761 9.94141 7.15819 9.63654 7.46305C9.33168 7.76791 8.8411 7.76791 8.53624 7.46305C7.41491 6.34172 5.58924 6.34172 4.4644 7.46305L2.39695 9.53401C1.27562 10.6553 1.27562 12.481 2.39695 13.6023C3.47973 14.6851 5.386 14.6816 6.46528 13.6023L7.26072 12.8069C7.56558 12.502 8.05617 12.502 8.36103 12.8069C8.66589 13.1118 8.66589 13.6023 8.36103 13.9072L7.56558 14.7026C6.73159 15.5366 5.61727 15.9957 4.42936 15.9957L4.43286 15.9992Z" fill="#9EA2A9"/>
</g>
<defs>
<clipPath id="clip0_2001_5440">
<rect width="16" height="16" fill="white"/>
</clipPath>
</defs>
</svg>
