<svg width="18" height="18" viewBox="0 0 18 18" fill="none" xmlns="http://www.w3.org/2000/svg">
<path d="M16.7226 9C16.7226 4.73496 13.265 1.2774 9 1.27736C4.73494 1.27736 1.27736 4.73494 1.27736 9C1.2774 13.265 4.73496 16.7226 9 16.7226C13.265 16.7226 16.7226 13.265 16.7226 9ZM18 9C18 13.9705 13.9705 18 9 18C4.02949 18 3.31058e-05 13.9705 0 9C0 4.02947 4.02947 0 9 0C13.9705 3.61178e-05 18 4.02949 18 9Z" fill="#035DB2"/>
<path d="M7.24111 12.9966C7.22001 12.9966 7.19892 12.9966 7.17782 12.9966C6.93868 12.9764 6.72415 12.8481 6.59755 12.6523L4.11124 8.7636C3.8932 8.42267 4.00574 7.97708 4.36093 7.76779C4.71612 7.5585 5.18033 7.66653 5.39836 8.00746L7.35013 11.059L12.678 5.2462C12.9523 4.94577 13.4305 4.9154 13.7435 5.18207C14.0565 5.44537 14.0881 5.90445 13.8103 6.20488L7.8073 12.7536C7.66311 12.9122 7.45563 13 7.24111 13V12.9966Z" fill="#035DB2"/>
</svg>
