<svg width="24" height="25" viewBox="0 0 24 25" fill="none" xmlns="http://www.w3.org/2000/svg">
<path d="M23.5594 1.75248C23.5594 1.75248 23.555 1.73931 23.5506 1.73493C23.4892 1.58584 23.3972 1.44118 23.2788 1.32281C23.0947 1.13868 22.8667 1.02472 22.6299 0.980938C22.608 0.976558 22.5816 0.976586 22.551 0.97221C22.4983 0.963456 22.4413 0.959075 22.3887 0.959092C22.3887 0.959092 22.3843 0.954705 22.3755 0.954707L7.18423 1.25782C6.50448 1.27119 5.95613 1.83707 5.96907 2.52558C5.98639 3.20971 6.54756 3.75333 7.23608 3.73995L19.3444 3.49487L0.64757 22.1917C0.165016 22.6742 0.164763 23.4636 0.647007 23.9458C1.12925 24.4281 1.91863 24.4278 2.40119 23.9453L21.098 5.24849L20.8573 17.2998C20.8439 17.9883 21.3875 18.5495 22.0716 18.5668C22.4225 18.5754 22.7427 18.4306 22.9708 18.2025C23.1989 17.9744 23.3262 17.6805 23.3351 17.3472L23.6425 2.21292C23.6425 2.21292 23.6381 2.20855 23.6381 2.19978C23.6381 2.14716 23.6294 2.09451 23.6294 2.04189C23.625 2.01119 23.625 1.9849 23.6207 1.9542C23.6075 1.87966 23.5813 1.80947 23.555 1.73932L23.5594 1.75248Z" fill="white"/>
</svg>
