<svg width="12" height="12" viewBox="0 0 12 12" fill="none" xmlns="http://www.w3.org/2000/svg">
<path d="M0.63292 11.9968C0.795534 11.9968 0.95815 11.9331 1.0825 11.8088L10.6927 2.20509L10.5684 8.39621C10.562 8.74671 10.8426 9.03985 11.1933 9.04623H11.2061C11.5536 9.04623 11.8374 8.76902 11.8438 8.4217L12 0.646953C12 0.646953 12 0.64377 12 0.640583C12 0.611906 11.9968 0.580043 11.9936 0.551365C11.9936 0.53862 11.9936 0.529056 11.9904 0.51631C11.9681 0.395228 11.9107 0.27733 11.8151 0.184925C11.6875 0.0574699 11.5217 -0.00306693 11.3591 0.000119447C11.3591 0.000119447 11.3559 0.000119447 11.3527 0.000119447L3.54404 0.156249C3.1933 0.162621 2.91271 0.45577 2.91909 0.806271C2.92547 1.15359 3.20925 1.4308 3.55679 1.4308H3.56955L9.79673 1.30653L0.186529 10.9103C-0.0621762 11.1588 -0.0621762 11.5635 0.186529 11.812C0.310881 11.9363 0.473492 12 0.636107 12L0.63292 11.9968Z" fill="#9D9D9D"/>
</svg>
