<svg width="18" height="17" viewBox="0 0 18 17" fill="none" xmlns="http://www.w3.org/2000/svg">
<path d="M9 0C4.02916 0 0 3.80533 0 8.50001C0 13.1947 4.02916 17 9 17C13.9708 17 18 13.1947 18 8.50001C18 3.80533 13.9708 0 9 0ZM7.88849 3.8442C7.88849 3.17353 8.46482 2.62922 9.17494 2.62922C9.88506 2.62922 10.4614 3.17353 10.4614 3.8442V3.93169C10.4614 4.60236 9.88506 5.14667 9.17494 5.14667C8.46482 5.14667 7.88849 4.60236 7.88849 3.93169V3.8442ZM9.55576 14.0889C8.61922 14.6138 7.06004 14.4874 7.13722 13.1509C7.2247 11.6638 7.97083 10.0309 8.40822 8.60206C8.40308 8.6215 8.83019 7.49886 8.83533 7.52802C8.81475 7.45512 8.38766 7.58147 8.07376 7.66895C7.38937 7.86821 6.27273 8.11121 6.27273 8.11121C7.0446 7.13436 10.3327 4.77731 10.6261 7.251C10.801 8.73814 9.76156 10.7064 9.37048 12.1498C9.33961 12.2664 9.3036 12.5046 9.25729 12.7233C9.40652 12.6844 9.5609 12.6552 9.72042 12.6407C10.4151 12.5046 11.7324 12.2616 11.7324 12.2616C11.1149 12.942 10.3842 13.6272 9.56087 14.084L9.55576 14.0889Z" fill="#156DAD"/>
</svg>
