<svg width="175" height="54" viewBox="0 0 175 54" fill="none" xmlns="http://www.w3.org/2000/svg">
<g clip-path="url(#clip0_537_432)">
<mask id="mask0_537_432" style="mask-type:luminance" maskUnits="userSpaceOnUse" x="-62" y="-78" width="298" height="210">
<path d="M-61.8848 -77.8854H235.464V131.722H-61.8848V-77.8854Z" fill="white"/>
</mask>
<g mask="url(#mask0_537_432)">
<path d="M49.3139 0.708244C49.3139 2.70819 49.3501 4.65826 49.3071 6.6049C49.2177 10.5412 48.8926 14.4723 47.5548 18.1953C44.6537 26.269 38.8895 31.0995 30.4925 32.8002C30.2724 32.8449 30.0471 32.8552 29.6619 32.9016C29.9542 31.6945 30.1709 30.5681 30.5011 29.4778C31.6962 25.5313 33.6893 22.0043 36.2739 18.8092C38.2807 16.3277 40.4045 13.9495 42.8017 11.8292C43.0355 11.6211 43.2986 11.4422 43.5256 11.2273C43.9143 10.8593 43.9641 10.2609 43.6477 9.85501C43.3072 9.41994 42.8722 9.40619 42.4044 9.61082C42.2909 9.66241 42.1826 9.73292 42.0846 9.81031C37.2868 13.5952 32.9636 17.8221 30.0385 23.2648C28.1297 26.8158 26.9397 30.5767 27.0154 34.6952C27.0962 39.1629 27.0291 43.6322 27.0257 48.1033C27.0257 48.3268 27.0257 48.5521 27.0257 48.8118C30.943 48.4438 34.5336 47.3656 37.7889 45.2504C40.4423 43.5256 42.7466 41.4311 44.4921 38.7863C47.3364 34.4803 48.6691 29.7616 48.1291 24.5751C48.1068 24.3791 48.1326 24.1556 48.2082 23.9733C48.9236 22.2571 49.6544 20.546 50.3801 18.8367C50.4248 18.9485 50.5297 19.1548 50.5951 19.3732C51.7782 23.2631 51.9536 27.2114 51.1591 31.1889C48.9511 42.2341 40.1397 50.5761 28.9517 51.8951C19.3337 53.0283 11.4217 49.5839 5.40119 42.057C1.18119 36.7829 -0.521252 30.642 0.137371 23.9131C0.821788 16.9365 4.13038 11.358 9.55413 7.02449C14.9383 2.72366 21.1239 0.893967 27.9904 1.38234C30.0677 1.53023 32.1003 1.94466 34.0728 2.62564C34.3875 2.73398 34.6918 2.86811 35.12 3.03836C33.9954 3.83971 32.9619 4.57572 31.851 5.36503C26.8847 4.02887 21.9579 4.3642 17.1119 6.34351V17.1222C19.3475 18.5512 19.3526 20.7214 18.0646 22.0628C16.7973 23.3817 14.7234 23.2975 13.4938 21.8925C12.2884 20.5151 12.6082 18.4928 14.2522 17.2787C14.2522 14.302 14.2522 11.303 14.2505 8.30218C14.2505 8.1818 14.2298 8.05971 14.2058 7.8138C11.2703 9.62802 8.83875 11.8584 6.95747 14.658C3.93434 19.1548 2.81657 24.1556 3.54742 29.471C5.20859 41.5669 15.3596 48.1497 24.1195 48.7275V38.5128H14.094C12.4896 39.9694 10.8456 40.0364 9.59712 38.6745C8.47935 37.4553 8.54814 35.5086 9.75533 34.4218C10.5343 33.7219 11.4578 33.5585 12.4586 33.7529C13.4732 33.9506 14.0407 34.7193 14.572 35.5258H24.1143V28.7539H12.0424C10.0889 30.109 8.46387 30.0041 7.36846 28.4203C6.46909 27.1202 6.84225 25.0945 8.1423 24.2123C9.70718 23.1513 11.3683 23.705 12.7062 25.7565H24.104V12.4757C22.5684 11.7415 21.8633 10.6564 22.0559 9.31505C22.2451 8.00124 23.2958 6.85252 24.4892 6.65305C25.9114 6.41573 27.165 7.01933 27.8184 8.25747C28.508 9.56268 28.2604 10.7939 27.0068 12.063V15.4628V18.9519C27.0859 18.835 27.1392 18.7886 27.1512 18.7318C28.5201 12.3519 32.2431 7.74846 37.8921 4.64966C41.3554 2.74946 45.1283 1.66608 48.9477 0.744354C49.0474 0.72028 49.154 0.723721 49.3139 0.708244Z" fill="white"/>
<path d="M37.1935 36.1878C37.2124 34.4458 38.5073 33.0994 40.165 33.0994C41.883 33.0977 43.3137 34.5215 43.2913 36.2102C43.269 37.8353 41.8468 39.1422 40.1238 39.1198C38.552 39.1009 37.178 37.7252 37.1935 36.1878Z" fill="white"/>
<path d="M36.6511 40.5664C36.6614 42.1262 35.253 43.5156 33.6606 43.5156C32.0785 43.5173 30.7854 42.2035 30.7544 40.5682C30.7235 38.919 32.0785 37.5141 33.7036 37.5106C35.3218 37.5072 36.6408 38.8743 36.6511 40.5664Z" fill="white"/>
<path d="M18.1557 44.4629C17.2856 44.4612 16.5908 43.7664 16.6098 42.9135C16.6269 42.1018 17.3389 41.3916 18.1385 41.3899C19.0001 41.3882 19.7515 42.1448 19.7309 42.9892C19.712 43.7836 18.9846 44.4629 18.1557 44.4629Z" fill="white"/>
<path d="M63.2086 12.7634H70.4776V36.1299H63.2086V12.7634ZM62.6738 5.78337C62.6738 3.56676 64.3986 2.0036 66.8629 2.0036C69.2859 2.0036 71.0106 3.56676 71.0106 5.78337C71.0106 7.95872 69.2859 9.52016 66.8629 9.52016C64.3986 9.52016 62.6738 7.95872 62.6738 5.78337Z" fill="white"/>
<path d="M75.4834 19.0971H87.1047V24.2285H75.4834V19.0971Z" fill="white"/>
<path d="M101.021 30.217C105.948 30.217 109.441 27.9591 109.441 20.6902C109.441 13.4196 105.948 11.4076 101.021 11.4076H100.036V30.217H101.021ZM92.6846 5.57799H101.474C110.796 5.57799 116.956 10.0525 116.956 20.6902C116.956 31.3262 110.796 36.1309 101.883 36.1309H92.6846V5.57799Z" fill="white"/>
<path d="M122.612 5.57799H141.994V11.6552H129.962V17.3214H140.189V23.4812H129.962V29.9711H142.447V36.1309H122.612V5.57799Z" fill="white"/>
<path d="M161.493 23.4416L160.834 20.8536C160.014 17.8167 159.233 14.1624 158.413 11.0396H158.248C157.51 14.2415 156.688 17.8167 155.907 20.8536L155.25 23.4416H161.493ZM162.887 29.1096H153.854L152.088 36.1309H144.614L154.1 5.57799H162.887L172.376 36.1309H164.653L162.887 29.1096Z" fill="white"/>
<path d="M71.2063 53.127H69.693V42.5322H71.2063V53.127ZM64.6012 49.342C66.4481 49.3317 67.6295 49.2732 68.902 49.0342L69.0396 50.2827C67.6054 50.5578 66.2658 50.606 64.0165 50.606H63.0879V43.4712H68.1918V44.699H64.6012V49.342Z" fill="white"/>
<path d="M81.7652 53.0928H80.2519V42.5325H81.7652V53.0928ZM77.0981 45.3767C77.0981 47.0964 77.9476 48.9192 79.7119 49.6535L78.8882 50.8452C77.6604 50.319 76.8229 49.2855 76.3534 48.0129C75.884 49.3904 75.0328 50.5477 73.7963 51.11L72.9365 49.9063C74.7009 49.1135 75.5607 47.1755 75.5607 45.3767V44.7921H73.3596V43.5402H79.2768V44.7921H77.0981V45.3767Z" fill="white"/>
<path d="M90.8883 45.9604H89.2134V44.7687H90.8883V42.5332H92.4016V48.1169H90.8883V45.9604ZM92.7008 51.876V53.0127H85.4525V50.2148H90.9003V49.6422H85.4302V48.5055H92.4016V51.281H86.9435V51.876H92.7008ZM89.3974 47.7042C88.0096 47.8985 86.83 47.9105 84.8799 47.9105H84.0527V43.1179H88.9262V44.2855H85.5557V44.939H88.6063V46.0413H85.5557V46.7291C87.069 46.7171 88.0905 46.6947 89.2822 46.5228L89.3974 47.7042Z" fill="white"/>
<path d="M97.2852 43.6208H102.491V45.0309H98.9824V46.993H101.964V48.4134H98.9824V50.6833H102.618V52.1055H97.2852V43.6208Z" fill="white"/>
<path d="M103.782 51.0287L104.756 49.8593C105.364 50.4199 106.167 50.8 106.912 50.8C107.796 50.8 108.265 50.4199 108.265 49.8249C108.265 49.1956 107.749 48.9995 106.993 48.6779L105.858 48.1964C104.998 47.8405 104.136 47.1526 104.136 45.9145C104.136 44.5284 105.352 43.4623 107.072 43.4623C108.059 43.4623 109.046 43.8509 109.734 44.5491L108.872 45.6153C108.334 45.1699 107.772 44.9171 107.072 44.9171C106.327 44.9171 105.846 45.2507 105.846 45.8113C105.846 46.4183 106.455 46.6367 107.177 46.9239L108.288 47.3951C109.321 47.8181 109.997 48.4716 109.997 49.6977C109.997 51.0854 108.838 52.2686 106.878 52.2686C105.743 52.2686 104.606 51.8197 103.782 51.0287Z" fill="white"/>
<path d="M111.079 47.898C111.079 45.1001 112.892 43.4613 115.149 43.4613C116.376 43.4613 117.225 43.9892 117.774 44.5498L116.869 45.628C116.456 45.2256 115.975 44.9178 115.206 44.9178C113.796 44.9178 112.811 46.0167 112.811 47.8412C112.811 49.6864 113.659 50.799 115.321 50.799C115.734 50.799 116.147 50.6838 116.388 50.4774V48.8042H114.886V47.4165H117.901V51.2461C117.328 51.8067 116.331 52.2676 115.149 52.2676C112.833 52.2676 111.079 50.7302 111.079 47.898Z" fill="white"/>
<path d="M130.913 51.7974V52.9668H123.665V50.0434H129.113V49.4226H123.642V48.2653H130.614V51.1319H125.156V51.7974H130.913ZM124.698 46.4666C125.477 46.4666 126.052 46.0057 126.052 45.249C126.052 44.4924 125.477 44.0333 124.698 44.0333C123.919 44.0333 123.367 44.4924 123.367 45.249C123.367 46.0057 123.919 46.4666 124.698 46.4666ZM127.415 45.8458C127.13 46.9463 126.064 47.6789 124.698 47.6789C123.116 47.6789 121.923 46.6712 121.923 45.249C121.923 43.8269 123.116 42.8054 124.698 42.8054C126.052 42.8054 127.13 43.5397 127.415 44.642H129.101V42.532H130.614V47.8182H129.101V45.8458H127.415Z" fill="white"/>
<path d="M142.148 47.7603H140.633V53.1152H139.12V42.5205H140.633V46.5101H142.148V47.7603ZM134.271 49.4232C135.784 49.4111 137.032 49.332 138.41 49.0896L138.547 50.3174C136.964 50.6046 135.509 50.6716 133.674 50.6716H132.78V46.3158H136.128V44.6305H132.768V43.4251H137.619V47.5092H134.271V49.4232Z" fill="white"/>
<path d="M151.648 53.1162H150.134V42.5215H151.648V53.1162ZM144.654 47.027C144.654 48.5987 145.192 49.4345 145.973 49.4345C146.753 49.4345 147.292 48.5987 147.292 47.027C147.292 45.4672 146.753 44.6298 145.973 44.6298C145.192 44.6298 144.654 45.4672 144.654 47.027ZM148.748 47.027C148.748 49.3536 147.567 50.8102 145.973 50.8102C144.379 50.8102 143.197 49.3536 143.197 47.027C143.197 44.7106 144.379 43.2661 145.973 43.2661C147.567 43.2661 148.748 44.7106 148.748 47.027Z" fill="white"/>
<path d="M162.528 51.7054V52.9092H155.328V49.5043H156.84V51.7054H162.528ZM156.37 47.2567C157.137 47.2567 157.724 46.7391 157.724 45.8793C157.724 45.0074 157.137 44.4812 156.37 44.4812C155.614 44.4812 155.041 45.0074 155.041 45.8793C155.041 46.7391 155.614 47.2567 156.37 47.2567ZM159.087 46.5224C158.812 47.7485 157.724 48.5757 156.37 48.5757C154.811 48.5757 153.597 47.4287 153.597 45.8793C153.597 44.3093 154.811 43.1743 156.37 43.1743C157.736 43.1743 158.847 44.0341 159.112 45.3066H160.774V42.5432H162.286V50.2489H160.774V46.5224H159.087Z" fill="white"/>
<path d="M172.604 48.77C170.769 48.4037 169.416 47.3822 168.74 46.0409C168.063 47.3822 166.721 48.414 164.888 48.77L164.245 47.5095C166.62 47.0951 167.937 45.4218 167.937 43.9086V43.1502H169.555V43.9086C169.555 45.4562 170.861 47.0951 173.246 47.5095L172.604 48.77ZM173.578 51.8086H164.015V50.5825H173.578V51.8086Z" fill="white"/>
</g>
</g>
<defs>
<clipPath id="clip0_537_432">
<rect width="174.261" height="53.5236" fill="white"/>
</clipPath>
</defs>
</svg>
