<svg width="255" height="49" viewBox="0 0 255 49" fill="none" xmlns="http://www.w3.org/2000/svg">
<g clip-path="url(#clip0_835_10)">
<path d="M24.7454 0C11.0801 0 0 10.9802 0 24.5243C0 38.0683 11.0786 49.0516 24.7454 49.0516C38.4122 49.0516 49.4908 38.0713 49.4908 24.5243C49.4908 10.9772 38.4107 0 24.7454 0ZM24.7454 43.0715C14.4107 43.0715 6.03367 34.7688 6.03367 24.5258C6.03367 14.2828 14.4122 5.98012 24.7454 5.98012C35.0786 5.98012 43.4571 14.2828 43.4571 24.5258C43.4571 34.7688 35.0786 43.0715 24.7454 43.0715Z" fill="#094891"/>
<path d="M6.04659 29.548L1.93689 30.6236L1.75781 29.9515L5.86751 28.876L6.04659 29.548Z" fill="#E6E6E6"/>
<path d="M5.49292 26.677L2.78067 27.0866C2.52965 27.1245 2.34904 27.1882 2.2373 27.2777C2.12557 27.3672 2.08118 27.4916 2.10567 27.6524C2.13322 27.8284 2.21434 27.9391 2.34904 27.9862C2.48373 28.0332 2.67506 28.0362 2.91996 27.9937L5.6322 27.5841L5.747 28.329L3.04241 28.7371C2.51128 28.8175 2.11179 28.7689 1.84394 28.593C1.57608 28.417 1.4123 28.1439 1.35567 27.7738C1.29751 27.393 1.36792 27.0835 1.5669 26.8408C1.76588 26.5981 2.13628 26.4373 2.67659 26.3553L5.38118 25.9473L5.49292 26.6785V26.677Z" fill="#E6E6E6"/>
<path d="M1.72165 24.5239L5.24512 24.3691L5.28032 25.1367L1.75686 25.2915L1.79665 26.1698L1.0742 26.2017L0.960938 23.6774L1.68339 23.6455L1.72318 24.5239H1.72165Z" fill="#E6E6E6"/>
<path d="M4.6718 21.7371L5.41415 21.8084L5.33762 22.5957C5.2917 23.0569 5.15089 23.3982 4.91211 23.6197C4.67334 23.8412 4.32436 23.9307 3.86364 23.8867L2.37129 23.7441C1.85701 23.6941 1.50497 23.5408 1.31517 23.283C1.12538 23.0251 1.05344 22.661 1.09936 22.1892L1.17282 21.4307L1.89987 21.5004L1.8264 22.259C1.80344 22.4987 1.83711 22.6792 1.93048 22.799C2.02385 22.9189 2.1815 22.9902 2.40344 23.0114L2.70038 23.0402L2.84272 21.5915L3.57742 21.6628L3.4366 23.1115L3.88966 23.1555C4.09783 23.1752 4.2616 23.1373 4.37946 23.0433C4.49885 22.9477 4.57078 22.7763 4.59527 22.526L4.6718 21.7386V21.7371Z" fill="#E6E6E6"/>
<path d="M2.43571 20.7482C2.04541 20.6511 1.75459 20.4857 1.5648 20.2551C1.375 20.0246 1.32755 19.7227 1.42245 19.351C1.51276 18.993 1.69949 18.7533 1.97806 18.6334C2.25816 18.5121 2.59184 18.5015 2.98214 18.5985L3.53163 18.7366C3.71224 18.5728 3.91429 18.4893 4.13775 18.4848C4.36275 18.4802 4.62602 18.5151 4.92908 18.591L5.93469 18.8428L5.75255 19.5588L4.74847 19.307C4.50816 19.2463 4.31378 19.2342 4.16684 19.2676C4.0199 19.3024 3.92041 19.4193 3.8699 19.6195L3.69388 20.3067L5.45102 20.7467L5.27041 21.4566L2.43724 20.7482H2.43571ZM2.9852 20.1307L3.17653 19.3783L2.85051 19.2964C2.65306 19.2463 2.49235 19.2372 2.3699 19.2676C2.24745 19.2979 2.16786 19.3813 2.13265 19.5209C2.09592 19.6635 2.12194 19.7742 2.20918 19.8531C2.29796 19.9305 2.44643 19.9957 2.65918 20.0488L2.9852 20.1307Z" fill="#E6E6E6"/>
<path d="M6.72932 17.0158L4.19769 15.9691C3.9635 15.872 3.77524 15.8325 3.63289 15.8523C3.49054 15.8705 3.38799 15.9554 3.32524 16.1041C3.25636 16.2679 3.26707 16.4045 3.35891 16.5152C3.45075 16.6244 3.61146 16.7246 3.84258 16.8156L6.37422 17.8638L6.08187 18.5586L3.55636 17.5134C3.06044 17.3086 2.74514 17.0613 2.60738 16.7731C2.47116 16.4849 2.47422 16.1678 2.61963 15.8219C2.76809 15.4669 2.99156 15.2379 3.2885 15.1332C3.58544 15.0285 3.98646 15.0816 4.49156 15.291L7.01707 16.3362L6.72932 17.0189V17.0158Z" fill="#E6E6E6"/>
<path d="M8.63455 13.5436L8.2366 14.1853L6.66007 13.2281L6.26976 13.8576C6.16109 14.0336 6.14578 14.1914 6.22384 14.3279C6.3019 14.4644 6.44884 14.5995 6.66619 14.7314L7.56313 15.276L7.16976 15.9132L6.27282 15.3686C5.99731 15.2017 5.78302 15.0364 5.62996 14.874C5.4769 14.7117 5.39884 14.5054 5.39578 14.2551L4.95649 13.9881C4.59221 13.7666 4.36262 13.5042 4.26772 13.2008C4.17282 12.8973 4.21568 12.5985 4.39782 12.3042C4.59986 11.9765 4.85241 11.796 5.15394 11.7596C5.45547 11.7232 5.79221 11.8172 6.15955 12.0417L8.63302 13.5451L8.63455 13.5436ZM5.70037 12.644C5.58098 12.5712 5.457 12.5272 5.32843 12.509C5.19986 12.4908 5.09119 12.5515 5.00547 12.6895C4.91364 12.8367 4.90751 12.9626 4.98251 13.0657C5.05751 13.1689 5.15547 13.2569 5.27333 13.3297L5.61619 13.5375L6.0417 12.8503L5.69884 12.6425L5.70037 12.644Z" fill="#E6E6E6"/>
<path d="M6.76783 10.1137L9.47854 12.3498L8.98262 12.9414L6.27191 10.7053L5.70405 11.3819L5.14844 10.9238L6.77854 8.98047L7.33415 9.43861L6.7663 10.1152L6.76783 10.1137Z" fill="#E6E6E6"/>
<path d="M10.2376 11.4717L7.24219 8.48316L7.73964 7.99316L10.735 10.9817L10.2376 11.4717Z" fill="#E6E6E6"/>
<path d="M12.2118 8.0034C12.5041 8.36445 12.6404 8.70275 12.6235 9.01678C12.6051 9.3308 12.4276 9.62055 12.0909 9.88907C11.7648 10.147 11.4373 10.2547 11.1097 10.2122C10.7822 10.1697 10.4745 9.96795 10.1852 9.60994L9.25464 8.45548C8.99749 8.1369 8.8827 7.80619 8.91025 7.46637C8.9378 7.12656 9.10923 6.83074 9.423 6.58195C9.74902 6.32405 10.0766 6.22393 10.4041 6.28309C10.7317 6.34226 11.024 6.53189 11.2827 6.85046L12.2133 8.00492L12.2118 8.0034ZM10.7363 7.2995C10.6092 7.14173 10.4684 7.04312 10.3154 7.00368C10.1623 6.96424 10.0108 7.00368 9.85923 7.12353C9.70311 7.24641 9.62811 7.38749 9.63117 7.54526C9.63423 7.70303 9.70005 7.8608 9.82709 8.01857L10.7485 9.16089C10.8786 9.3217 11.0225 9.42637 11.1771 9.4734C11.3332 9.52043 11.4924 9.47947 11.6546 9.35052C11.8062 9.23068 11.8766 9.08959 11.8659 8.92727C11.8567 8.76495 11.7863 8.60263 11.6562 8.44031L10.7347 7.29647L10.7363 7.2995Z" fill="#E6E6E6"/>
<path d="M14.7675 7.85528L13.3945 5.50085C13.2675 5.28392 13.142 5.1398 13.018 5.0685C12.894 4.9972 12.7593 5.00175 12.6185 5.08367C12.4639 5.17166 12.3889 5.28847 12.3935 5.42955C12.3996 5.57063 12.4655 5.74813 12.594 5.95899L13.967 8.31342L13.3088 8.69116L11.9389 6.3428C11.6711 5.88163 11.5701 5.4963 11.6374 5.18379C11.7048 4.87128 11.9022 4.62249 12.2298 4.43438C12.565 4.24172 12.8833 4.19317 13.1833 4.28875C13.4833 4.38432 13.7695 4.66649 14.0435 5.13676L15.4134 7.48512L14.7675 7.85528Z" fill="#E6E6E6"/>
<path d="M18.3177 6.10846L17.609 6.38153L16.9401 4.67335L16.2452 4.94035C16.0508 5.01469 15.9422 5.1315 15.9207 5.28623C15.8993 5.44249 15.9345 5.63818 16.0264 5.87181L16.4059 6.8427L15.7034 7.11274L15.3238 6.14184C15.2075 5.84298 15.1371 5.58357 15.1141 5.36209C15.0912 5.1406 15.1554 4.92973 15.307 4.72948L15.1202 4.25465C14.9656 3.86023 14.9427 3.51283 15.0529 3.21397C15.1631 2.91512 15.3789 2.70425 15.7034 2.57834C16.0646 2.44029 16.3769 2.44636 16.6386 2.59958C16.9003 2.7528 17.11 3.0289 17.2677 3.42787L18.3162 6.10846H18.3177ZM16.533 3.63267C16.4825 3.50373 16.4121 3.3945 16.3202 3.30196C16.2284 3.21094 16.1059 3.19425 15.9529 3.25342C15.7906 3.31561 15.708 3.41119 15.7049 3.53862C15.7019 3.66757 15.7248 3.795 15.7753 3.92394L15.9207 4.29561L16.6784 4.00435L16.533 3.63267Z" fill="#E6E6E6"/>
<path d="M19.1819 4.70856C19.2248 4.89667 19.3074 5.02259 19.4299 5.08934C19.5523 5.15608 19.7008 5.16822 19.8753 5.1303L20.8931 4.90122L21.0585 5.62181L20.0773 5.84178C19.5829 5.95252 19.2141 5.94039 18.9707 5.80234C18.7273 5.66429 18.5498 5.35178 18.438 4.86026L17.7891 2.02039L18.5314 1.85352L19.1835 4.70705L19.1819 4.70856Z" fill="#E6E6E6"/>
<path d="M25.3496 1.03125L25.3619 1.77004L24.8399 1.77914C24.5858 1.7837 24.3915 1.85803 24.2537 2.00366C24.1175 2.1493 24.0517 2.3541 24.0563 2.6211L24.0746 3.66329C24.0792 3.92877 24.1527 4.13054 24.295 4.26859C24.4358 4.40664 24.6348 4.47339 24.8889 4.46884L25.4399 4.45973L25.4537 5.22887L24.843 5.23949C24.5889 5.24404 24.367 5.20915 24.1741 5.13633C23.9813 5.06351 23.8221 4.95884 23.695 4.82382C23.568 4.6888 23.4716 4.528 23.4057 4.34444C23.3399 4.16088 23.3063 3.96063 23.3017 3.7437L23.2818 2.57558C23.2772 2.37382 23.3032 2.18116 23.3598 1.9976C23.4165 1.81404 23.5052 1.65323 23.6277 1.51215C23.7501 1.37258 23.9047 1.26032 24.0945 1.17537C24.2843 1.09041 24.5078 1.04642 24.7665 1.04187L25.3481 1.03125H25.3496Z" fill="#E6E6E6"/>
<path d="M28.8492 1.46965L28.7161 2.57708C28.6671 2.98819 28.5508 3.28098 28.3671 3.45544C28.1834 3.6299 27.9492 3.73002 27.6661 3.75581L27.4533 5.53225L26.7508 5.44881L26.9635 3.67237C26.7048 3.58287 26.5013 3.43117 26.3528 3.21726C26.2059 3.00336 26.1569 2.69237 26.2059 2.28126L26.339 1.17383L27.0722 1.2603L26.9406 2.36166C26.9176 2.55281 26.9452 2.70754 27.0202 2.82435C27.0967 2.94268 27.2222 3.01247 27.3997 3.03219C27.5773 3.05343 27.7181 3.01247 27.8191 2.91083C27.9217 2.80918 27.9844 2.6681 28.0059 2.48606L28.1375 1.3847L28.8477 1.46813L28.8492 1.46965Z" fill="#E6E6E6"/>
<path d="M29.3451 2.80879C29.4155 2.57669 29.5027 2.39161 29.6099 2.25053C29.717 2.10944 29.8379 2.00629 29.9726 1.9365C30.1012 1.87127 30.2374 1.83638 30.3813 1.83031C30.5267 1.82424 30.6675 1.84093 30.8068 1.88189C30.94 1.92133 31.0639 1.98353 31.1787 2.06849C31.2935 2.15344 31.3854 2.26115 31.4558 2.38858C31.5262 2.51753 31.569 2.67075 31.5859 2.84672C31.6027 3.02421 31.5782 3.22446 31.5109 3.44595L31.3808 3.8783C31.5415 4.01787 31.6272 4.18322 31.641 4.37133C31.6532 4.56096 31.6257 4.77335 31.5537 5.00848L31.465 5.30582C31.3624 5.64564 31.1956 5.88381 30.966 6.02186C30.7349 6.15991 30.415 6.16598 30.0078 6.04006L28.5078 5.59709L29.3466 2.80728L29.3451 2.80879ZM30.219 5.38774C30.3706 5.43325 30.493 5.42415 30.5849 5.36044C30.6767 5.29672 30.7394 5.20873 30.7731 5.09647L30.8512 4.83403C30.8849 4.72025 30.8864 4.62013 30.8558 4.53517C30.8252 4.4487 30.718 4.37892 30.5374 4.32582L29.7078 4.08158L29.3879 5.1435L30.2175 5.38774H30.219ZM30.8221 3.27604C30.8803 3.08338 30.8925 2.92712 30.8573 2.80879C30.8221 2.69047 30.741 2.6131 30.6124 2.57517C30.4838 2.53725 30.369 2.55393 30.2665 2.62372C30.1639 2.6935 30.0828 2.83307 30.0201 3.0409L29.9053 3.42319L30.7058 3.65985L30.8206 3.27756L30.8221 3.27604Z" fill="#E6E6E6"/>
<path d="M33.7542 6.5213L33.4649 7.20245L32.7287 6.89601C32.2986 6.717 32.0124 6.48034 31.8685 6.18907C31.7262 5.8978 31.743 5.53979 31.9236 5.11805L32.5052 3.74818C32.7057 3.27638 32.9583 2.98814 33.2629 2.8865C33.569 2.78335 33.9409 2.82431 34.3802 3.00787L35.0874 3.30369L34.8042 3.97118L34.0971 3.67536C33.8721 3.5813 33.6884 3.56158 33.5445 3.61316C33.4006 3.66474 33.2858 3.79369 33.1986 3.99849L33.0823 4.27155L34.4369 4.83588L34.1506 5.51096L32.7976 4.94663L32.6216 5.36229C32.5404 5.55344 32.5282 5.7188 32.5833 5.85988C32.6399 6.00096 32.7838 6.11929 33.018 6.2179L33.7542 6.52434V6.5213Z" fill="#E6E6E6"/>
<path d="M35.5456 4.9663C35.7614 4.62952 36.0078 4.40652 36.2895 4.30033C36.5696 4.19262 36.8726 4.24268 37.2017 4.449C37.517 4.64621 37.6885 4.89652 37.716 5.19689C37.7451 5.49726 37.6517 5.81584 37.4359 6.15413L37.1328 6.62896C37.2339 6.84893 37.2507 7.06587 37.1864 7.27825C37.1221 7.49064 37.0043 7.72881 36.8374 7.99126L36.2834 8.859L35.6527 8.46305L36.2084 7.59531C36.3415 7.38748 36.4135 7.20847 36.4272 7.0598C36.441 6.91113 36.3584 6.78067 36.1823 6.66992L35.5777 6.29067L34.6073 7.80769L33.9844 7.4163L35.5487 4.96934L35.5456 4.9663ZM35.965 5.67627L36.6262 6.09194L36.8053 5.81129C36.914 5.64138 36.9737 5.49271 36.9828 5.3668C36.992 5.24088 36.9369 5.14076 36.8145 5.06339C36.689 4.98451 36.5742 4.97389 36.4716 5.03305C36.3706 5.09222 36.2604 5.21206 36.1441 5.39562L35.965 5.67627Z" fill="#E6E6E6"/>
<path d="M41.7129 8.57715L42.1843 9.06108L41.6807 9.54349L41.2506 9.10204C41.1358 8.98523 41.0256 8.91393 40.917 8.88814C40.8083 8.86235 40.7119 8.88966 40.6262 8.97158C40.5726 9.02315 40.5435 9.08232 40.5404 9.15058C40.5374 9.21885 40.5481 9.29319 40.571 9.37359C40.5971 9.45702 40.6307 9.54956 40.6721 9.64665C40.7119 9.74526 40.7517 9.84842 40.7884 9.95613C40.8251 10.0654 40.8542 10.1776 40.8741 10.2944C40.8955 10.4112 40.8986 10.5311 40.8864 10.6524C40.8695 10.7708 40.8313 10.8921 40.7716 11.018C40.7119 11.144 40.617 11.2699 40.4884 11.3928C40.1455 11.7219 39.7996 11.8691 39.4522 11.8357C39.1047 11.8023 38.7619 11.6112 38.4236 11.2638L37.9062 10.7328L38.4374 10.2246L38.8828 10.6813C39.0756 10.88 39.2563 10.9953 39.4231 11.0271C39.5899 11.059 39.743 11.0089 39.8823 10.8754C39.968 10.7935 40.0231 10.7055 40.0476 10.6145C40.0721 10.5235 40.0767 10.4294 40.0598 10.3354C40.0506 10.2413 40.0261 10.1427 39.9864 10.0411C39.9466 9.93944 39.9052 9.83476 39.8654 9.73009C39.8241 9.62541 39.7889 9.51771 39.7568 9.40696C39.7246 9.29622 39.7124 9.18699 39.7185 9.07928C39.7231 8.96399 39.7522 8.85021 39.8027 8.73644C39.8547 8.62266 39.942 8.50585 40.0675 8.386C40.3032 8.15997 40.5665 8.06288 40.8588 8.09625C41.1496 8.12962 41.4343 8.28891 41.7144 8.57563L41.7129 8.57715Z" fill="#E6E6E6"/>
<path d="M41.6984 13.7393L41.1 14.1807L40.6239 13.5466C40.3454 13.175 40.2183 12.8276 40.2459 12.5044C40.2719 12.1798 40.4709 11.8824 40.8413 11.6094L42.0443 10.7219C42.4591 10.417 42.8234 10.2956 43.1387 10.3609C43.454 10.4261 43.754 10.6491 44.0387 11.0284L44.4964 11.6397L43.9117 12.0721L43.4525 11.4607C43.3071 11.2665 43.1586 11.1573 43.0086 11.13C42.8586 11.1027 42.6933 11.1558 42.5142 11.2878L42.2755 11.4637L43.1525 12.6319L42.5602 13.0688L41.6831 11.9007L41.3173 12.1692C41.1505 12.292 41.054 12.4301 41.0295 12.5788C41.0051 12.7289 41.0693 12.9034 41.2209 13.1052L41.6969 13.7393H41.6984Z" fill="#E6E6E6"/>
<path d="M42.7564 17.0707L45.1993 15.8464C45.2651 15.813 45.3386 15.7751 45.4197 15.7311C45.5008 15.6871 45.5681 15.6386 45.6248 15.5824C45.686 15.5294 45.7289 15.4687 45.7533 15.4019C45.7778 15.3352 45.7687 15.2593 45.7258 15.1759C45.6829 15.0924 45.6278 15.0409 45.559 15.0196C45.4901 14.9999 45.4166 14.9954 45.3386 15.006C45.2636 15.0211 45.184 15.0485 45.0998 15.0879C45.0171 15.1273 44.9391 15.1637 44.8687 15.2002L42.4335 16.4214L42.0906 15.7493L44.5319 14.5251C44.5993 14.4917 44.6697 14.4553 44.7462 14.4128C44.8227 14.3719 44.8916 14.3218 44.9513 14.2642C45.0125 14.2111 45.0554 14.1504 45.0783 14.0806C45.1013 14.0108 45.0921 13.935 45.0493 13.8515C45.0018 13.759 44.9437 13.7013 44.8732 13.6786C44.8028 13.6558 44.7309 13.6528 44.6544 13.668C44.5763 13.6801 44.4982 13.7059 44.4187 13.7453C44.3391 13.7848 44.2641 13.8242 44.1921 13.8591L41.7431 15.0864L41.4141 14.4401L43.8493 13.2189C44.2886 12.999 44.6636 12.9049 44.9743 12.9352C45.285 12.9671 45.5222 13.1416 45.6845 13.4571C45.7778 13.6422 45.8161 13.8151 45.7977 13.9759C45.7794 14.1367 45.7197 14.2763 45.6187 14.3931C45.7809 14.3931 45.9294 14.431 46.0656 14.5008C46.2018 14.5706 46.3166 14.698 46.4115 14.8831C46.5921 15.235 46.5967 15.5369 46.4299 15.7888C46.263 16.0406 45.963 16.2757 45.5283 16.4942L43.087 17.7184L42.7564 17.0722V17.0707Z" fill="#E6E6E6"/>
<path d="M43.1016 18.1011L47.1286 16.751L47.3536 17.4094L43.3266 18.7595L43.1016 18.1011Z" fill="#E6E6E6"/>
<path d="M44.0002 20.7038L46.6787 20.1107C46.9267 20.056 47.1027 19.9802 47.2083 19.8846C47.3139 19.7875 47.3491 19.6601 47.3139 19.5023C47.2757 19.3294 47.1869 19.2232 47.0476 19.1868C46.9099 19.1489 46.7201 19.1595 46.4782 19.2186L43.7996 19.8118L43.6328 19.076L46.3037 18.4844C46.8272 18.3676 47.2297 18.3888 47.5099 18.5466C47.79 18.7044 47.9706 18.9653 48.0532 19.3309C48.1374 19.7056 48.0884 20.0212 47.9063 20.276C47.7241 20.5309 47.366 20.7175 46.8333 20.8358L44.1624 21.4259L43.9986 20.7038H44.0002Z" fill="#E6E6E6"/>
<path d="M44.4056 24.4754L44.3567 23.723L46.2026 23.6077L46.1551 22.8704C46.1429 22.6641 46.0633 22.5275 45.9194 22.4593C45.7755 22.391 45.5781 22.3667 45.324 22.3819L44.274 22.4471L44.2266 21.7023L45.275 21.637C45.598 21.6173 45.8689 21.6295 46.0878 21.675C46.3067 21.7205 46.4903 21.8449 46.6388 22.0482L47.1531 22.0163C47.5786 21.989 47.9199 22.0724 48.174 22.2666C48.4281 22.4608 48.5658 22.7293 48.5888 23.0737C48.6133 23.4575 48.5123 23.7503 48.2857 23.952C48.0592 24.1538 47.7301 24.2676 47.2985 24.2949L44.4041 24.4769L44.4056 24.4754ZM47.3261 23.5364C47.4653 23.5273 47.5924 23.4939 47.7087 23.4347C47.8235 23.3756 47.8771 23.2648 47.8664 23.1025C47.8556 22.9295 47.7883 22.8234 47.6674 22.7809C47.5449 22.7399 47.4148 22.7232 47.2755 22.7308L46.873 22.7566L46.925 23.5606L47.3261 23.5348V23.5364Z" fill="#E6E6E6"/>
<path d="M47.2794 25.1C47.6805 25.1364 47.9927 25.2547 48.2162 25.4535C48.4396 25.6522 48.533 25.9435 48.4978 26.3258C48.4641 26.6929 48.3172 26.9584 48.06 27.1207C47.8029 27.283 47.4738 27.3452 47.0728 27.3088L46.508 27.2572C46.3549 27.4468 46.1697 27.5591 45.9478 27.5985C45.7274 27.638 45.4595 27.6425 45.1488 27.6137L44.1172 27.5197L44.1861 26.7839L45.2192 26.878C45.4657 26.9007 45.66 26.884 45.7993 26.8279C45.9401 26.7718 46.0197 26.6398 46.0381 26.4335L46.1039 25.7265L44.2993 25.5612L44.3682 24.833L47.2794 25.1ZM46.8325 25.7948L46.7606 26.5685L47.0958 26.5988C47.2978 26.617 47.4585 26.6019 47.5748 26.5533C47.6927 26.5048 47.757 26.4092 47.7708 26.2666C47.7845 26.1194 47.7417 26.0148 47.6437 25.9511C47.5442 25.8873 47.3866 25.8464 47.1692 25.8251L46.834 25.7948H46.8325Z" fill="#E6E6E6"/>
<path d="M47.4297 31.0324L46.3369 30.7654C45.9312 30.6668 45.6527 30.5166 45.4996 30.3133C45.3481 30.1116 45.2761 29.8688 45.2838 29.5867L43.5312 29.1589L43.6996 28.4777L45.4522 28.9055C45.5746 28.6613 45.7506 28.4792 45.9833 28.3609C46.2144 28.2426 46.5328 28.232 46.9384 28.3306L48.0312 28.5976L47.8552 29.3075L46.7685 29.0436C46.5802 28.9981 46.4226 29.0041 46.2955 29.0648C46.1685 29.1255 46.0828 29.2408 46.0399 29.4137C45.9971 29.5852 46.02 29.7293 46.1103 29.8415C46.1991 29.9538 46.3338 30.0327 46.5129 30.0767L47.5996 30.3422L47.4282 31.0309L47.4297 31.0324Z" fill="#E6E6E6"/>
<path d="M42.5593 24.5239C42.5593 34.2768 34.5833 42.1821 24.7445 42.1821C14.9057 42.1821 6.92969 34.2768 6.92969 24.5239C6.92969 14.7709 14.9057 6.86719 24.7445 6.86719C34.5833 6.86719 42.5593 14.7724 42.5593 24.5239Z" fill="url(#paint0_linear_835_10)"/>
<path d="M11.3125 29.4756V19.5618L14.6753 15.9756V29.239L11.3125 29.4756Z" fill="white"/>
<path d="M26.9593 15.2021V17.8918H24.4552C23.2384 17.8918 22.2971 18.1528 21.6282 18.6731C20.9608 19.1934 20.6256 19.9383 20.6256 20.9062V24.6987C20.6256 25.6681 20.9593 26.4069 21.6282 26.9197C22.2955 27.4309 23.2384 27.6858 24.4552 27.6858H35.1527L37.2909 30.4832H24.169C22.9522 30.4832 21.8853 30.3451 20.967 30.0675C20.0486 29.7899 19.2909 29.3985 18.6955 28.8964C18.0986 28.3942 17.6501 27.8071 17.3532 27.1351C17.0547 26.463 16.9062 25.7318 16.9062 24.9415V20.6908C16.9062 19.955 17.0501 19.2556 17.3364 18.5927C17.6226 17.9282 18.0634 17.3457 18.6603 16.8436C19.2573 16.3414 20.0134 15.9425 20.9318 15.6466C21.8501 15.3508 22.9292 15.2021 24.169 15.2021H26.9593Z" fill="white"/>
<path d="M34.6062 21.5162H38.7541V24.045H34.8924C34.1041 24.045 33.4842 24.1528 33.0327 24.3682C32.5797 24.5836 32.3531 24.9067 32.3531 25.3376C32.3531 25.6061 32.4664 25.8306 32.6929 26.0096C32.9195 26.1901 33.2118 26.3509 33.57 26.4935C33.9511 26.6377 34.3797 26.7803 34.8572 26.9244C35.3363 27.0685 35.823 27.2293 36.3251 27.4083C36.8256 27.5873 37.3154 27.7982 37.7914 28.0409C38.2674 28.2836 38.6975 28.5749 39.0802 28.9147C39.4368 29.256 39.7414 29.6611 39.974 30.139C40.6797 31.5892 39.5393 33.7328 38.3195 34.5141C37.0429 35.3302 35.2368 35.7383 32.898 35.7383H28.7057V33.0744H32.3975C33.7322 33.0744 34.7348 32.8999 35.4021 32.5495C36.071 32.2006 36.2899 31.342 36.146 30.9991C35.9577 30.5501 35.598 30.456 35.2154 30.2588C34.8572 30.0434 34.4332 29.8598 33.945 29.7066C33.4552 29.5549 32.9623 29.3971 32.4618 29.2348C31.9598 29.074 31.4654 28.895 30.9756 28.6978C30.4858 28.5006 30.0633 28.2578 29.7052 27.9711C29.324 27.6662 29.0195 27.3036 28.7929 26.8804C28.5664 26.4602 28.4531 25.9338 28.4531 25.3072C28.4531 24.1239 28.995 23.1955 30.0802 22.5235C31.1654 21.8499 32.6746 21.5146 34.6062 21.5146V21.5162Z" fill="white"/>
<path d="M16.68 13.6217C11.3152 17.3323 7.50245 21.982 6.96521 25.4681C6.76623 26.7591 7.01266 27.8377 7.69531 28.6721C10.2851 31.8366 18.2871 30.1846 25.9157 24.9099C33.5428 19.6351 37.4902 13.0239 34.9004 9.85942C32.3106 6.6949 24.307 8.34695 16.68 13.6201V13.6217ZM8.61215 28.038C8.11776 27.4342 7.94633 26.6195 8.10092 25.6153C8.59684 22.3916 12.2351 18.0134 17.3688 14.4636C24.2443 9.70924 31.853 7.89032 33.9836 10.4935C34.3708 10.9684 34.556 11.5615 34.556 12.2457C34.556 15.3131 30.8489 20.1782 25.2254 24.0664C18.3499 28.8208 10.7412 30.6397 8.61215 28.0364V28.038Z" fill="white"/>
<path d="M13.7544 40.5399L14.2901 40.954L13.86 41.5017L13.3717 41.1239C13.2416 41.0238 13.1222 40.9692 13.0105 40.9586C12.8988 40.948 12.8069 40.9889 12.7334 41.0815C12.6875 41.1391 12.6676 41.2028 12.6738 41.2711C12.6799 41.3394 12.7013 41.4107 12.735 41.4865C12.7732 41.5654 12.8192 41.6519 12.8727 41.7429C12.9263 41.8354 12.9799 41.931 13.0319 42.0342C13.0824 42.1358 13.1283 42.245 13.1651 42.3573C13.2018 42.4711 13.2232 42.5879 13.2278 42.7108C13.2278 42.8306 13.2079 42.9565 13.1651 43.09C13.1238 43.2235 13.0472 43.36 12.9386 43.4996C12.6447 43.8728 12.3232 44.067 11.9758 44.0806C11.6268 44.0958 11.2595 43.9547 10.8768 43.6574L10.2891 43.2038L10.7421 42.6273L11.2472 43.0187C11.4661 43.1886 11.662 43.2781 11.8304 43.2872C12.0003 43.2963 12.1442 43.225 12.2636 43.0733C12.337 42.9793 12.3783 42.8867 12.3906 42.7912C12.4013 42.6971 12.3937 42.6031 12.363 42.512C12.3416 42.4195 12.3033 42.327 12.2482 42.2314C12.1931 42.1358 12.1396 42.0387 12.0845 41.9401C12.0294 41.8415 11.9789 41.7399 11.9314 41.6352C11.884 41.5305 11.8564 41.4243 11.8472 41.3166C11.8365 41.2028 11.8472 41.0845 11.8824 40.9647C11.9176 40.8448 11.988 40.7174 12.0952 40.5809C12.2972 40.3245 12.5437 40.1925 12.8375 40.1849C13.1299 40.1773 13.4345 40.2957 13.7528 40.5414L13.7544 40.5399Z" fill="#E6E6E6"/>
<path d="M15.6615 41.7079L13.5187 45.3457L12.9141 44.9953L15.0569 41.3574L15.6615 41.7079Z" fill="#E6E6E6"/>
<path d="M15.9042 46.3794L17.0828 43.9233C17.1915 43.6958 17.2405 43.5122 17.2282 43.3711C17.216 43.2285 17.1364 43.1223 16.9894 43.0541C16.8272 42.9782 16.6894 42.9828 16.5746 43.0662C16.4599 43.1512 16.3512 43.3059 16.2486 43.5304L15.0701 45.9865L14.3828 45.6634L15.5583 43.2134C15.7894 42.7325 16.0527 42.4321 16.3512 42.3107C16.6481 42.1894 16.968 42.2091 17.3093 42.3699C17.6599 42.5352 17.8803 42.7673 17.9706 43.0662C18.0609 43.3651 17.9889 43.7595 17.7548 44.2495L16.5808 46.6995L15.9073 46.3824L15.9042 46.3794Z" fill="#E6E6E6"/>
<path d="M20.799 43.5432L20.5863 44.2516L20.0858 44.1045C19.8424 44.0332 19.6327 44.0453 19.4598 44.1439C19.2853 44.241 19.1598 44.417 19.0832 44.6734L18.7832 45.6716C18.7067 45.9264 18.7159 46.1403 18.8077 46.3148C18.9011 46.4892 19.0695 46.6121 19.3128 46.6834L19.8409 46.8397L19.6205 47.577L19.0343 47.404C18.7909 47.3327 18.5888 47.2326 18.4281 47.1052C18.2659 46.9777 18.1465 46.8306 18.0669 46.6637C17.9873 46.4968 17.9445 46.3163 17.9383 46.1206C17.9322 45.9264 17.9598 45.7247 18.0225 45.5168L18.3577 44.3973C18.4159 44.2031 18.4985 44.0286 18.6087 43.8693C18.7174 43.7116 18.8521 43.5841 19.0113 43.487C19.1705 43.39 19.3526 43.3293 19.5593 43.305C19.7659 43.2807 19.9924 43.305 20.2404 43.3778L20.7975 43.5417L20.799 43.5432Z" fill="#E6E6E6"/>
<path d="M22.9546 47.3618L22.8551 48.0945L22.0654 47.9883C21.6016 47.9261 21.2633 47.7729 21.0475 47.5287C20.8332 47.2829 20.7551 46.934 20.8179 46.4804L21.0184 45.0089C21.0873 44.5007 21.2557 44.1578 21.5235 43.9804C21.7914 43.8029 22.1618 43.7452 22.6332 43.8074L23.3939 43.9091L23.296 44.6266L22.5337 44.525C22.2919 44.4931 22.1097 44.5204 21.9842 44.6084C21.8587 44.6964 21.7822 44.8496 21.7516 45.0696L21.7118 45.3624L23.1674 45.5565L23.0679 46.2817L21.6123 46.0875L21.5511 46.535C21.5235 46.7398 21.5541 46.9037 21.646 47.025C21.7378 47.1464 21.9077 47.2238 22.1602 47.2571L22.95 47.3618H22.9546Z" fill="#E6E6E6"/>
<path d="M28.7142 45.8039C28.7739 45.7144 28.832 45.6234 28.8856 45.5308C28.9422 45.4352 28.9927 45.3351 29.0325 45.2335C29.0754 45.1288 29.106 45.0196 29.1228 44.9104C29.1412 44.7966 29.1412 44.6767 29.1228 44.5493C29.0983 44.4037 29.0448 44.2656 28.9621 44.1382C28.881 44.0123 28.7769 43.9046 28.6514 43.8151C28.529 43.7271 28.3851 43.6618 28.2259 43.6178C28.0667 43.5754 27.8922 43.5632 27.7116 43.5814C27.4376 43.6103 27.1897 43.7119 26.9739 43.8833C26.7565 44.0563 26.6004 44.299 26.5101 44.6039L26.4688 44.745L27.1315 44.9589L27.1774 44.8117C27.2386 44.6176 27.3244 44.4704 27.433 44.3718C27.5295 44.2838 27.6335 44.2353 27.7514 44.2231H27.7728C27.8953 44.214 27.9948 44.2247 28.0698 44.252C28.1463 44.2793 28.2091 44.3157 28.258 44.3597C28.307 44.4037 28.3437 44.4507 28.3667 44.4977C28.3943 44.5539 28.4126 44.6039 28.4218 44.6418C28.4356 44.7116 28.4325 44.7814 28.4157 44.8557C28.3958 44.9377 28.3682 45.0196 28.3346 45.0954C28.3009 45.1713 28.2626 45.2426 28.2228 45.3033L26.8009 47.3952L26.8591 47.9383L29.507 47.6577L29.4381 47.0175L27.7652 47.195L28.7126 45.8008L28.7142 45.8039Z" fill="#E6E6E6"/>
<path d="M31.7243 43.0247C31.5773 42.9549 31.4151 42.9139 31.2437 42.9033C30.8931 42.8805 30.5105 42.9928 30.2426 43.1794C30.1018 43.278 29.9855 43.3963 29.8982 43.5298C29.8095 43.6664 29.7528 43.8196 29.7299 43.9849C29.7069 44.1503 29.7192 44.3248 29.7697 44.5053L30.2687 46.3014C30.3238 46.4987 30.4125 46.664 30.5334 46.793C30.6513 46.9189 30.7891 47.0144 30.9406 47.0797C31.0891 47.1419 31.2498 47.1768 31.4181 47.1828C31.5819 47.1889 31.7411 47.1707 31.8896 47.1297C32.035 47.0903 32.1773 47.0251 32.3151 46.9371C32.4544 46.8476 32.5753 46.7353 32.6732 46.6049C32.7727 46.4714 32.8447 46.3181 32.8829 46.1497C32.9227 45.9768 32.9166 45.7902 32.8615 45.596L32.3625 43.7983C32.312 43.6133 32.2278 43.454 32.1161 43.325C32.0044 43.1976 31.8727 43.096 31.7243 43.0247ZM31.6646 43.988L32.1636 45.7841C32.1896 45.8782 32.1942 45.9647 32.1773 46.039C32.159 46.1209 32.1283 46.1907 32.084 46.2544C32.0396 46.3181 31.9845 46.3712 31.9217 46.4137C31.7901 46.5002 31.6539 46.5366 31.4931 46.5366C31.4181 46.5366 31.3477 46.5229 31.2789 46.4941C31.21 46.4653 31.1503 46.4213 31.0937 46.3606C31.0385 46.3014 30.9957 46.218 30.9666 46.1118L30.4692 44.3202C30.4385 44.2079 30.4294 44.1093 30.4416 44.0289C30.4539 43.9485 30.4799 43.8788 30.5197 43.8211C30.561 43.7619 30.6115 43.7134 30.6758 43.674C30.7447 43.6315 30.8227 43.5996 30.9039 43.5769C30.985 43.5541 31.0646 43.5465 31.1488 43.5511C31.2268 43.5556 31.3018 43.5738 31.3692 43.6072C31.435 43.6391 31.4931 43.6846 31.5467 43.7468C31.5988 43.809 31.6386 43.8909 31.6661 43.988H31.6646Z" fill="#E6E6E6"/>
<path d="M32.6094 43.2701L33.2247 43.4976L33.4742 42.9621L34.9007 45.8885L35.5482 45.579L33.7221 41.835L33.1635 42.102L32.6094 43.2701Z" fill="#E6E6E6"/>
<path d="M36.7762 40.6533C36.6278 40.5684 36.4701 40.5153 36.3063 40.4971C36.1441 40.4789 35.9788 40.4925 35.8119 40.538C35.4722 40.6321 35.1492 40.8611 34.9579 41.1251C34.8568 41.2647 34.7864 41.4133 34.7497 41.5681C34.7114 41.7259 34.7084 41.8897 34.742 42.0535C34.7742 42.2174 34.8446 42.3782 34.9517 42.5314L36.0186 44.0666C36.1364 44.235 36.2757 44.3624 36.4318 44.4444C36.5849 44.5248 36.7472 44.5703 36.9109 44.5809C37.0732 44.5915 37.2354 44.5718 37.3961 44.5232C37.5538 44.4747 37.6977 44.4064 37.8247 44.32C37.9487 44.235 38.0619 44.1273 38.163 43.9999C38.2655 43.8694 38.3421 43.7253 38.391 43.569C38.4415 43.4098 38.4568 43.2414 38.4385 43.0699C38.4186 42.8924 38.3497 42.7195 38.2349 42.5541L37.1681 41.0189C37.0579 40.8611 36.9262 40.7383 36.7778 40.6518L36.7762 40.6533ZM36.5711 41.427L37.638 42.9622C37.6946 43.0442 37.7283 43.123 37.7359 43.1989C37.7451 43.2793 37.7405 43.3582 37.7191 43.4325C37.6977 43.5068 37.664 43.5751 37.6181 43.6358C37.5232 43.7617 37.4053 43.8391 37.2538 43.8922C37.1834 43.9164 37.1114 43.9271 37.038 43.921C36.9645 43.9164 36.8926 43.8952 36.8176 43.8542C36.7456 43.8163 36.6783 43.7511 36.6155 43.6601L35.5517 42.1294C35.4859 42.0338 35.4446 41.9443 35.4278 41.8624C35.4125 41.7805 35.414 41.7092 35.4324 41.6409C35.4507 41.5711 35.4829 41.5089 35.5318 41.4513C35.5839 41.3891 35.6451 41.3329 35.7155 41.2844C35.7829 41.2374 35.8579 41.2025 35.939 41.1812C36.0155 41.16 36.0905 41.1539 36.1655 41.1615C36.2375 41.1691 36.3094 41.1949 36.3783 41.2374C36.4472 41.2783 36.513 41.342 36.5711 41.4255V41.427Z" fill="#E6E6E6"/>
<path d="M43.7918 36.9071C43.8544 36.2296 43.3509 35.6301 42.6674 35.5681C41.9838 35.5061 41.379 36.005 41.3164 36.6825C41.2538 37.36 41.7573 37.9595 42.4408 38.0215C43.1244 38.0835 43.7292 37.5845 43.7918 36.9071Z" fill="#E6E6E6"/>
<path d="M8.24087 37.2686C8.50355 36.6401 8.2024 35.9195 7.56824 35.6591C6.93408 35.3988 6.20705 35.6973 5.94437 36.3258C5.68169 36.9543 5.98284 37.6749 6.617 37.9353C7.25116 38.1956 7.97819 37.8971 8.24087 37.2686Z" fill="#E6E6E6"/>
<g clip-path="url(#clip1_835_10)">
<path d="M56.7812 28.3474V6.54395H60.6394V28.3474H56.7812Z" fill="white"/>
<path d="M77.543 6.52344V9.75686H77.8597C77.8913 9.75686 77.8491 9.75686 77.7488 9.75686H76.9835C75.4424 9.75686 74.1704 9.88223 73.1834 10.1382C72.1911 10.3889 71.3994 10.7337 70.8136 11.1672C70.27 11.5956 69.8847 12.1075 69.663 12.7082C69.436 13.3037 69.3252 13.9567 69.3252 14.6671V20.1467C69.3252 20.8571 69.4255 21.5205 69.6102 22.1264C69.7949 22.7376 70.1802 23.2547 70.7661 23.6883C71.315 24.1427 72.0856 24.4979 73.0726 24.7539C74.0595 25.0098 75.3685 25.1352 76.9783 25.1352H77.8544V28.3686H76.5138C72.4761 28.3686 69.5416 27.6321 67.7365 26.1643C65.9209 24.6912 65.0078 22.8107 65.0078 20.528V14.3641C65.0078 13.2985 65.2242 12.2903 65.6517 11.3396C66.0792 10.3889 66.7601 9.55836 67.6837 8.84795C68.6021 8.13754 69.7949 7.57339 71.2517 7.1555C72.7031 6.73761 74.4607 6.52866 76.5138 6.52866H77.543V6.52344Z" fill="white"/>
<path d="M89.4377 6.65918H93.5492V9.5165H89.7966C88.2607 9.5165 87.1418 9.78291 86.4503 10.3157C85.7695 10.8485 85.4317 11.4545 85.4317 12.144C85.4317 12.6246 85.59 13.0372 85.912 13.382C86.2392 13.7215 86.7301 14.0088 87.3793 14.2387C88.0285 14.4685 88.6829 14.6983 89.3321 14.923C89.9813 15.1528 90.6147 15.3774 91.2375 15.6125C91.855 15.8632 92.4514 16.1662 93.0267 16.5057C93.6126 16.8452 94.1615 17.2475 94.6734 17.7071C95.1907 18.1616 95.5812 18.7362 95.8557 19.4362C96.1354 20.1361 96.2674 20.9353 96.2674 21.8547C96.2674 23.7822 95.4229 25.3284 93.7287 26.4985C92.0344 27.6634 89.8441 28.2484 87.1734 28.2484H83.0144V25.2814H86.8145C87.5323 25.2814 88.2237 25.2031 88.8888 25.0568C89.5644 24.9001 90.203 24.6598 90.8205 24.3307C91.4328 24.0277 91.9025 23.6725 92.2297 23.2651C92.557 22.8629 92.7153 22.4136 92.7153 21.9331C92.7153 21.4786 92.652 21.0712 92.5147 20.716C92.3775 20.3607 92.1875 20.0526 91.95 19.8018C91.438 19.2951 90.6622 18.8407 89.6382 18.4332C88.609 18.0258 87.6484 17.7124 86.7617 17.4825C86.1073 17.3049 85.4845 17.0855 84.8881 16.8348C84.2811 16.5788 83.748 16.2654 83.2677 15.8841C82.7927 15.4767 82.4127 14.9804 82.133 14.4006C81.8691 13.8155 81.7266 13.0947 81.7266 12.2328C81.7266 10.4829 82.4391 9.10384 83.8536 8.1009C85.2786 7.10319 87.1365 6.62261 89.4271 6.67485L89.4377 6.65918Z" fill="white"/>
</g>
<g clip-path="url(#clip2_835_10)">
<path d="M56.7812 42.5451V32.6436H58.5082V42.5451H56.7812Z" fill="white"/>
<path d="M65.1033 42.5348V35.6597C65.1033 35.2436 64.9651 34.882 64.6888 34.565C64.4125 34.248 63.9684 34.0895 63.3565 34.0895C62.8384 34.0895 62.4338 34.248 62.1476 34.565C61.8664 34.882 61.7233 35.2485 61.7233 35.6597V42.5348H59.9766V35.5408C59.9766 34.5848 60.3022 33.8666 60.9535 33.3911C61.6049 32.9156 62.4141 32.6729 63.3763 32.6729C64.3385 32.6729 65.1773 32.9106 65.8286 33.3911C66.4799 33.8715 66.8056 34.5848 66.8056 35.5408V42.5397H65.1033V42.5348Z" fill="white"/>
<path d="M71.2558 33.931V42.5744H69.4844V33.931H67.1406V32.6729H73.5108V33.931H71.2607H71.2558Z" fill="white"/>
<path d="M79.6937 41.1579V42.5547H77.6707C76.3828 42.5547 75.4256 42.312 74.794 41.8315C74.1674 41.3461 73.8516 40.6823 73.8516 39.8452V35.4517C73.8516 34.461 74.1575 33.7527 74.7693 33.3168C75.3812 32.8859 76.3335 32.668 77.6213 32.668H79.526V34.0499H77.4832C76.822 34.0499 76.3483 34.1985 76.0572 34.5007C75.7661 34.8028 75.618 35.1347 75.618 35.5012V36.5761H79.4816V37.9779H75.618V39.6719C75.618 40.1573 75.8006 40.5189 76.1707 40.7616C76.5407 41.0043 77.0934 41.138 77.8286 41.1579H79.6937Z" fill="white"/>
<path d="M81.3203 35.4368C81.3203 34.466 81.5621 33.7626 82.0555 33.3268C82.5489 32.8909 83.299 32.668 84.3055 32.668C85.3121 32.668 86.0769 32.881 86.5704 33.302C87.0638 33.723 87.3154 34.4313 87.3154 35.4368V36.8337C87.6214 36.9377 87.873 37.0714 88.0655 37.2299C88.2579 37.3884 88.3812 37.5766 88.4454 37.7797C88.4898 37.9977 88.5342 38.2206 88.5687 38.4435C88.6033 38.6664 88.628 38.8942 88.628 39.127V42.5299H86.9256V39.2657C86.9256 38.8992 86.8418 38.6069 86.674 38.4038C86.5062 38.1958 86.1016 38.0918 85.4552 38.0918H83.1361V42.5299H81.3203V35.4368ZM83.1411 36.7148H85.623V35.2783C85.623 35.1396 85.6033 35.001 85.5687 34.8623C85.5292 34.7236 85.4799 34.5799 85.4207 34.4313C85.3417 34.2926 85.2134 34.1886 85.0259 34.1143C84.8434 34.04 84.6016 34.0004 84.3154 34.0004C84.0391 34.0004 83.8171 34.04 83.6493 34.1193C83.4815 34.1985 83.373 34.3075 83.3286 34.4462C83.2644 34.5948 83.22 34.7384 83.1904 34.8771C83.1608 35.0158 83.146 35.1496 83.146 35.2734V36.7098L83.1411 36.7148Z" fill="white"/>
<path d="M95.2986 42.5348V35.6597C95.2986 35.2436 95.1604 34.882 94.8841 34.565C94.6078 34.248 94.1637 34.0895 93.5518 34.0895C93.0288 34.0895 92.6242 34.248 92.343 34.565C92.0617 34.882 91.9186 35.2485 91.9186 35.6597V42.5348H90.1719V35.5408C90.1719 34.5848 90.4975 33.8666 91.1489 33.3911C91.8002 32.9156 92.6094 32.6729 93.5765 32.6729C94.5436 32.6729 95.3726 32.9106 96.0239 33.3911C96.6752 33.8715 97.0009 34.5848 97.0009 35.5408V42.5397H95.2986V42.5348Z" fill="white"/>
<path d="M105.565 42.5298H103.793V38.0718H101.03C100.803 38.0718 100.616 38.1214 100.477 38.2204C100.339 38.3195 100.241 38.4433 100.181 38.5919C100.122 38.7405 100.078 38.899 100.063 39.0674C100.048 39.2359 100.038 39.3845 100.038 39.5231V42.5298H98.2422V39.3498C98.2422 38.7653 98.3261 38.265 98.4938 37.8539C98.6616 37.4428 99.007 37.1208 99.53 36.8781V35.3376C99.53 34.4411 99.7817 33.7576 100.29 33.2969C100.793 32.8362 101.558 32.6084 102.565 32.6084C103.468 32.6084 104.193 32.8164 104.736 33.2276C105.278 33.6436 105.55 34.347 105.55 35.3376V42.5248L105.565 42.5298ZM103.793 35.2039C103.793 34.872 103.714 34.5847 103.551 34.347C103.389 34.1142 103.058 33.9953 102.55 33.9953C102.091 33.9953 101.775 34.1092 101.607 34.342C101.44 34.5748 101.356 34.8621 101.356 35.2039V36.6701H103.793V35.2039Z" fill="white"/>
<path d="M109.826 33.931V42.5744H108.055V33.931H105.711V32.6729H112.081V33.931H109.826Z" fill="white"/>
<path d="M112.758 42.5451V32.6436H114.48V42.5451H112.758Z" fill="white"/>
<path d="M122.36 39.9145C122.316 40.821 122.005 41.5045 121.438 41.9553C120.87 42.4011 120.051 42.6289 118.98 42.6289C117.831 42.6636 116.967 42.4457 116.395 41.9751C115.817 41.5045 115.531 40.816 115.531 39.9195V34.9861C115.531 34.2629 115.847 33.6586 116.484 33.1831C117.12 32.7026 117.954 32.4648 118.98 32.4648C120.007 32.4648 120.791 32.7026 121.418 33.1831C122.044 33.6586 122.36 34.2629 122.36 34.9861V39.9096V39.9145ZM120.707 35.1792C120.663 34.7978 120.466 34.4808 120.12 34.2282C119.78 33.9756 119.395 33.8468 118.98 33.8468C118.521 33.8468 118.112 33.9756 117.762 34.2282C117.406 34.4808 117.234 34.7978 117.234 35.1792V39.9145C117.234 40.4346 117.411 40.7913 117.762 40.9844C118.112 41.1826 118.516 41.2767 118.98 41.2767C119.444 41.2767 119.814 41.1677 120.14 40.9498C120.47 40.7318 120.658 40.3752 120.702 39.8799V35.1792H120.707Z" fill="white"/>
<path d="M128.403 42.5348V35.6597C128.403 35.2436 128.265 34.882 127.989 34.565C127.712 34.248 127.268 34.0895 126.656 34.0895C126.133 34.0895 125.729 34.248 125.447 34.565C125.161 34.882 125.023 35.2485 125.023 35.6597V42.5348H123.281V35.5408C123.281 34.5848 123.602 33.8666 124.253 33.3911C124.905 32.9156 125.714 32.6729 126.681 32.6729C127.648 32.6729 128.477 32.9106 129.128 33.3911C129.78 33.8715 130.105 34.5848 130.105 35.5408V42.5397H128.403V42.5348Z" fill="white"/>
<path d="M138.399 42.5298H136.632V38.0718H133.869C133.637 38.0718 133.454 38.1214 133.316 38.2204C133.178 38.3195 133.079 38.4433 133.02 38.5919C132.956 38.7405 132.921 38.899 132.902 39.0674C132.887 39.2359 132.882 39.3845 132.882 39.5231V42.5298H131.086V39.3498C131.086 38.7653 131.17 38.265 131.338 37.8539C131.51 37.4428 131.851 37.1208 132.374 36.8781V35.3376C132.374 34.4411 132.625 33.7576 133.134 33.2969C133.642 32.8362 134.402 32.6084 135.413 32.6084C136.316 32.6084 137.042 32.8164 137.584 33.2276C138.132 33.6436 138.399 34.347 138.399 35.3376V42.5248V42.5298ZM136.099 35.2039C136.099 34.872 136.02 34.5847 135.857 34.347C135.699 34.1142 135.364 33.9953 134.856 33.9953C134.392 33.9953 134.081 34.1092 133.913 34.342C133.746 34.5748 133.662 34.8621 133.662 35.2039V36.6701H136.099V35.2039Z" fill="white"/>
<path d="M141.201 39.7907C141.201 40.2414 141.364 40.5783 141.695 40.8111C142.025 41.0439 142.509 41.1578 143.155 41.1578H145.524V42.5546H143.155C141.778 42.5546 140.811 42.3317 140.259 41.8909C139.706 41.45 139.43 40.7962 139.43 39.9294V32.6729H141.201V39.7907Z" fill="white"/>
<path d="M157.357 32.6436V34.1098H157.5C157.5 34.1098 157.5 34.1098 157.451 34.1098H157.106C156.415 34.1098 155.847 34.1692 155.403 34.2832C154.959 34.3971 154.604 34.5506 154.343 34.7488C154.096 34.9419 153.928 35.1747 153.829 35.4472C153.726 35.7196 153.676 36.0168 153.676 36.3388V38.8253C153.676 39.1473 153.721 39.4494 153.805 39.7268C153.889 40.0042 154.061 40.2419 154.323 40.4351C154.57 40.6431 154.91 40.8016 155.354 40.9156C155.798 41.0295 156.38 41.0889 157.101 41.0889H157.496V42.5551H156.894C155.088 42.5551 153.77 42.2232 152.966 41.5545C152.152 40.8858 151.742 40.0339 151.742 38.9937V36.1951C151.742 35.7097 151.836 35.254 152.028 34.8231C152.221 34.3921 152.522 34.0157 152.936 33.6888C153.346 33.3668 153.879 33.1092 154.535 32.921C155.186 32.7328 155.971 32.6387 156.889 32.6387H157.348L157.357 32.6436Z" fill="white"/>
<path d="M164.78 32.6729V35.4219C164.78 36.2541 164.598 36.8633 164.228 37.2546C163.863 37.6459 163.266 37.9084 162.437 38.0323V42.5249H160.665V38.0323C159.836 37.9035 159.234 37.6459 158.859 37.2546C158.484 36.8633 158.297 36.2541 158.297 35.4219V32.6729H160.044V35.5755C160.044 35.9668 160.177 36.2541 160.433 36.4324C160.695 36.6107 161.09 36.6999 161.608 36.6999C162.126 36.6999 162.476 36.6057 162.698 36.4225C162.92 36.2392 163.029 35.9569 163.029 35.5755V32.6729H164.78Z" fill="white"/>
<path d="M165.48 35.1895C165.45 34.9122 165.48 34.6249 165.564 34.3178C165.648 34.0107 165.811 33.7333 166.057 33.4757C166.289 33.2132 166.595 32.9952 166.98 32.8268C167.36 32.6584 167.843 32.5742 168.431 32.5742C169.018 32.5742 169.546 32.6584 169.936 32.8268C170.32 32.9952 170.636 33.2082 170.868 33.4757C171.095 33.7283 171.243 34.0107 171.317 34.3178C171.386 34.6199 171.411 34.9122 171.401 35.1895V36.73C171.816 36.8687 172.121 37.1461 172.309 37.5671C172.501 37.9881 172.595 38.4686 172.595 39.0085V40.1131C172.595 40.8412 172.363 41.4306 171.894 41.8863C171.426 42.342 170.646 42.5699 169.561 42.5699H165.49V35.1895H165.48ZM169.595 35.0558C169.595 34.7437 169.521 34.4862 169.368 34.2781C169.215 34.0701 168.885 33.9661 168.381 33.9661C167.967 33.9661 167.681 34.08 167.518 34.3029C167.355 34.5258 167.276 34.7784 167.276 35.0558V36.6656H169.6V35.0558H169.595ZM169.067 41.1186C169.709 41.1186 170.172 41.0146 170.449 40.8065C170.725 40.5985 170.863 40.3162 170.863 39.9595V39.1621C170.863 38.7807 170.779 38.5033 170.612 38.325C170.444 38.1466 170.128 38.0575 169.669 38.0575H167.276V41.1136H169.072L169.067 41.1186Z" fill="white"/>
<path d="M179.509 41.1579V42.5547H177.486C176.198 42.5547 175.241 42.312 174.614 41.8315C173.988 41.3461 173.672 40.6823 173.672 39.8452V35.4517C173.672 34.461 173.978 33.7527 174.595 33.3168C175.206 32.8859 176.159 32.668 177.447 32.668H179.351V34.0499H177.303C176.647 34.0499 176.174 34.1985 175.882 34.5007C175.591 34.8028 175.448 35.1347 175.448 35.5012V36.5761H179.312V37.9779H175.448V39.6719C175.448 40.1573 175.631 40.5189 176.001 40.7616C176.371 41.0043 176.919 41.138 177.654 41.1579H179.519H179.509Z" fill="white"/>
<path d="M180.875 35.4368C180.875 34.466 181.122 33.7626 181.615 33.3268C182.104 32.8909 182.854 32.668 183.87 32.668C184.887 32.668 185.637 32.881 186.135 33.302C186.628 33.723 186.88 34.4313 186.88 35.4368V36.8337C187.186 36.9377 187.433 37.0714 187.625 37.2299C187.818 37.3884 187.946 37.5766 188.005 37.7797C188.049 37.9977 188.094 38.2206 188.128 38.4435C188.168 38.6664 188.188 38.8942 188.188 39.127V42.5299H186.49V39.2657C186.49 38.8992 186.401 38.6069 186.234 38.4038C186.066 38.1958 185.661 38.0918 185.015 38.0918H182.691V42.5299H180.875V35.4368ZM182.691 36.7148H185.173V35.2783C185.173 35.1396 185.153 35.001 185.114 34.8623C185.074 34.7236 185.025 34.5799 184.966 34.4313C184.887 34.2926 184.758 34.1886 184.576 34.1143C184.393 34.04 184.151 34.0004 183.865 34.0004C183.579 34.0004 183.367 34.04 183.199 34.1193C183.026 34.1985 182.923 34.3075 182.878 34.4462C182.819 34.5948 182.77 34.7384 182.74 34.8771C182.706 35.0158 182.696 35.1496 182.696 35.2734V36.7098L182.691 36.7148Z" fill="white"/>
<path d="M197.391 32.708H199.232V34.0058H197.554C196.868 34.0058 196.365 34.1246 196.054 34.3673C195.748 34.6101 195.6 34.8874 195.6 35.1945C195.6 35.4125 195.669 35.6007 195.817 35.7543C195.965 35.9078 196.183 36.0416 196.474 36.1456C196.765 36.2496 197.056 36.3536 197.347 36.4576C197.638 36.5616 197.919 36.6657 198.201 36.7697C198.477 36.8836 198.743 37.0223 199 37.1758C199.262 37.3294 199.508 37.5127 199.735 37.7207C199.967 37.9287 200.145 38.1863 200.263 38.5083C200.387 38.8253 200.446 39.1869 200.446 39.6079C200.446 40.4846 200.066 41.183 199.311 41.713C198.551 42.243 197.574 42.5056 196.375 42.5056H194.515V41.1583H196.217C196.538 41.1583 196.849 41.1236 197.145 41.0542C197.446 40.9849 197.732 40.8759 198.008 40.7224C198.285 40.5837 198.492 40.4252 198.64 40.2419C198.788 40.0586 198.857 39.8556 198.857 39.6376C198.857 39.4296 198.827 39.2463 198.768 39.0878C198.709 38.9243 198.62 38.7857 198.516 38.6717C198.285 38.4439 197.939 38.2358 197.48 38.0526C197.016 37.8693 196.587 37.7257 196.192 37.6216C195.901 37.5424 195.62 37.4433 195.354 37.3294C195.082 37.2105 194.845 37.0718 194.628 36.8985C194.416 36.7152 194.248 36.4873 194.12 36.2248C194.002 35.9573 193.938 35.6304 193.938 35.2391C193.938 34.4416 194.258 33.8175 194.89 33.3618C195.526 32.9061 196.36 32.6931 197.387 32.713L197.391 32.708Z" fill="white"/>
<path d="M207.647 41.1579V42.5547H205.619C204.336 42.5547 203.379 42.312 202.747 41.8315C202.12 41.3461 201.805 40.6823 201.805 39.8452V35.4517C201.805 34.461 202.111 33.7527 202.727 33.3168C203.339 32.8859 204.292 32.668 205.579 32.668H207.489V34.0499H205.441C204.78 34.0499 204.306 34.1985 204.015 34.5007C203.724 34.8028 203.581 35.1347 203.581 35.5012V36.5761H207.445V37.9779H203.581V39.6719C203.581 40.1573 203.764 40.5189 204.134 40.7616C204.499 41.0043 205.056 41.138 205.787 41.1579H207.652H207.647Z" fill="white"/>
<path d="M217.83 42.5297V35.5654C217.83 35.2088 217.746 34.872 217.569 34.555C217.391 34.2379 217.041 34.0794 216.523 34.0794C216.005 34.0794 215.664 34.2429 215.511 34.5698C215.358 34.9017 215.284 35.2236 215.284 35.5456V42.5248H213.537V35.5506C213.537 35.2187 213.439 34.8868 213.246 34.5649C213.054 34.2429 212.718 34.0794 212.225 34.0794C211.672 34.0794 211.317 34.233 211.154 34.5451C210.991 34.8571 210.917 35.1939 210.917 35.5654V42.5297H209.102V35.4465C209.102 34.654 209.338 33.9804 209.812 33.4355C210.291 32.8907 211.056 32.6133 212.116 32.6133C212.743 32.6133 213.241 32.7173 213.611 32.9253C213.977 33.1334 214.253 33.3711 214.435 33.6337C214.623 33.3662 214.894 33.1334 215.255 32.9253C215.615 32.7223 216.084 32.6133 216.671 32.6133C217.727 32.6133 218.482 32.8758 218.926 33.4058C219.37 33.9358 219.592 34.5995 219.592 35.3921V42.5297H217.845H217.83Z" fill="white"/>
<path d="M221.258 42.5451V32.6436H222.985V42.5451H221.258Z" fill="white"/>
<path d="M229.572 42.5348V35.6597C229.572 35.2436 229.434 34.882 229.158 34.565C228.881 34.248 228.437 34.0895 227.825 34.0895C227.302 34.0895 226.903 34.248 226.616 34.565C226.335 34.882 226.192 35.2485 226.192 35.6597V42.5348H224.445V35.5408C224.445 34.5848 224.771 33.8666 225.422 33.3911C226.074 32.9156 226.878 32.6729 227.85 32.6729C228.822 32.6729 229.641 32.9106 230.297 33.3911C230.954 33.8715 231.274 34.5848 231.274 35.5408V42.5397H229.572V42.5348Z" fill="white"/>
<path d="M240.102 42.5298H238.33V38.0718H235.572C235.34 38.0718 235.158 38.1214 235.019 38.2204C234.881 38.3195 234.783 38.4433 234.723 38.5919C234.659 38.7405 234.62 38.899 234.605 39.0674C234.59 39.2359 234.58 39.3845 234.58 39.5231V42.5298H232.789V39.3498C232.789 38.7653 232.873 38.265 233.041 37.8539C233.208 37.4428 233.554 37.1208 234.072 36.8781V35.3376C234.072 34.4411 234.329 33.7576 234.832 33.2969C235.335 32.8362 236.095 32.6084 237.107 32.6084C238.01 32.6084 238.735 32.8164 239.278 33.2276C239.82 33.6436 240.097 34.347 240.097 35.3376V42.5248L240.102 42.5298ZM238.064 35.2039C238.064 34.872 237.985 34.5847 237.822 34.347C237.659 34.1142 237.329 33.9953 236.82 33.9953C236.366 33.9953 236.051 34.1092 235.878 34.342C235.71 34.5748 235.626 34.8621 235.626 35.2039V36.6701H238.064V35.2039Z" fill="white"/>
<path d="M241.047 35.4368C241.047 34.466 241.294 33.7626 241.787 33.3268C242.276 32.8909 243.026 32.668 244.037 32.668C245.049 32.668 245.804 32.881 246.302 33.302C246.8 33.723 247.047 34.4313 247.047 35.4368V36.8337C247.358 36.9377 247.605 37.0714 247.797 37.2299C247.989 37.3884 248.118 37.5766 248.177 37.7797C248.221 37.9977 248.261 38.2206 248.3 38.4435C248.34 38.6664 248.359 38.8942 248.359 39.127V42.5299H246.657V39.2657C246.657 38.8992 246.573 38.6069 246.405 38.4038C246.233 38.1958 245.828 38.0918 245.187 38.0918H242.863V42.5299H241.047V35.4368ZM242.596 36.7148H245.078V35.2783C245.078 35.1396 245.058 35.001 245.024 34.8623C244.984 34.7236 244.935 34.5799 244.876 34.4313C244.797 34.2926 244.669 34.1886 244.486 34.1143C244.303 34.04 244.062 34.0004 243.776 34.0004C243.489 34.0004 243.277 34.04 243.109 34.1193C242.942 34.1985 242.833 34.3075 242.789 34.4462C242.725 34.5948 242.685 34.7384 242.651 34.8771C242.621 35.0158 242.606 35.1496 242.606 35.2734V36.7098L242.596 36.7148Z" fill="white"/>
<path d="M254.999 32.6729V35.4219C254.999 36.2541 254.817 36.8633 254.447 37.2546C254.077 37.6459 253.479 37.9084 252.655 38.0323V42.5249H250.884V38.0323C250.055 37.9035 249.453 37.6459 249.078 37.2546C248.703 36.8633 248.516 36.2541 248.516 35.4219V32.6729H250.262V35.5755C250.262 35.9668 250.391 36.2541 250.657 36.4324C250.919 36.6107 251.308 36.6999 251.827 36.6999C252.345 36.6999 252.7 36.6057 252.917 36.4225C253.139 36.2392 253.253 35.9569 253.253 35.5755V32.6729H254.999Z" fill="white"/>
</g>
</g>
<defs>
<linearGradient id="paint0_linear_835_10" x1="24.7445" y1="41.8438" x2="24.7445" y2="9.28988" gradientUnits="userSpaceOnUse">
<stop stop-color="white"/>
<stop offset="0.02" stop-color="#E2F0F3"/>
<stop offset="0.07" stop-color="#AED7DD"/>
<stop offset="0.12" stop-color="#80C0CA"/>
<stop offset="0.17" stop-color="#59ADBA"/>
<stop offset="0.23" stop-color="#399EAD"/>
<stop offset="0.28" stop-color="#2192A2"/>
<stop offset="0.34" stop-color="#0F899B"/>
<stop offset="0.4" stop-color="#058497"/>
<stop offset="0.47" stop-color="#028396"/>
<stop offset="0.62" stop-color="#056C97"/>
<stop offset="0.86" stop-color="#0A4C99"/>
<stop offset="1" stop-color="#0C419A"/>
</linearGradient>
<clipPath id="clip0_835_10">
<rect width="255" height="49" fill="white"/>
</clipPath>
<clipPath id="clip1_835_10">
<rect width="39.4898" height="21.8452" fill="white" transform="translate(56.7812 6.52344)"/>
</clipPath>
<clipPath id="clip2_835_10">
<rect width="198.214" height="10.1641" fill="white" transform="translate(56.7812 32.4648)"/>
</clipPath>
</defs>
</svg>
