<svg width="16" height="16" viewBox="0 0 16 16" fill="none" xmlns="http://www.w3.org/2000/svg">
<path d="M15.8023 0.185255C15.5555 -0.0617515 15.1568 -0.0617515 14.91 0.185255L7.99367 7.10775L1.0773 0.185255C0.830517 -0.0617515 0.431877 -0.0617515 0.18509 0.185255C-0.0616968 0.432261 -0.0616968 0.831292 0.18509 1.0783L7.10145 8.0008L0.18509 14.9233C-0.0616968 15.1703 -0.0616968 15.5693 0.18509 15.8163C0.311648 15.943 0.46982 16 0.634345 16C0.798869 16 0.95708 15.9366 1.08364 15.8163L8 8.8938L14.9164 15.8163C15.0429 15.943 15.2011 16 15.3657 16C15.5302 16 15.6884 15.9366 15.8149 15.8163C16.0617 15.5693 16.0617 15.1703 15.8149 14.9233L8.89855 8.0008L15.8149 1.0783C16.0617 0.831292 16.0617 0.432261 15.8149 0.185255H15.8023Z" fill="white"/>
</svg>
